<?xml version="1.0" encoding="UTF-8" standalone="no"?>
<!DOCTYPE svg PUBLIC "-//W3C//DTD SVG 1.1//EN" "http://www.w3.org/Graphics/SVG/1.1/DTD/svg11.dtd">
<svg version="1.1" xmlns="http://www.w3.org/2000/svg" xmlns:xlink="http://www.w3.org/1999/xlink" preserveAspectRatio="xMidYMid meet" viewBox="0 0 640 640" width="640" height="640"><defs><path d="M51.28 498.74C56.76 481.71 64.51 465.48 74.24 450.15C82.37 437.31 91.06 424.92 99.94 411.73C103.25 417.17 105.42 422.16 108.83 426.26C114.97 433.66 119.88 441.5 123.76 450.24C127.82 459.42 134.53 466.91 143.31 472.62C153.9 479.48 162.97 487.86 170.9 497.49C172.79 499.72 174.12 500.43 176.95 498.56C193.02 487.86 209.93 478.5 227.6 470.3C236.29 466.2 244.79 460.49 251.22 453.72C266.53 437.49 284.48 424.83 303.66 413.24C311.31 408.61 318.59 403.35 326.24 398.62C347.6 385.52 359.5 366.71 364.51 343.62C366.31 335.51 367.63 327.31 369.14 318.84C370.18 319.2 371.31 319.46 372.45 320C397.96 331.41 416.95 348.7 427.25 373.84C431.69 384.63 435.85 395.42 440.1 406.2C440.1 407.72 440.1 409.14 440.1 410.66C437.64 418.06 435.09 425.55 432.64 432.95C426.97 450.33 420.16 467.53 407.88 481.53C391.35 500.25 372.92 517.64 355.16 535.38C348.16 542.33 340.23 548.48 333.42 555.61C327.66 561.58 323.13 568.63 317.74 574.96C313.96 579.41 309.14 581.2 302.72 579.41C288.92 575.58 174.21 505.6 169.96 506.05C156.26 507.47 66.4 537.6 50.15 540.63C46.56 541.26 42.97 541.79 40.51 538.14C40.32 537.16 40.32 536.27 40.32 535.38C43.91 523.16 47.31 510.86 51.28 498.74Z" id="bcM5jrGv"></path><path d="M215.09 39.14L215.5 39.15L215.94 39.17L216.4 39.18L216.9 39.2L217.44 39.22L218.02 39.25L218.65 39.27L219.34 39.3L220.08 39.33L220.89 39.36L227.31 39.65L233.54 40.02L239.57 40.48L245.41 41.03L251.06 41.65L256.52 42.35L261.79 43.11L266.88 43.93L271.79 44.81L276.51 45.74L281.06 46.72L285.43 47.74L289.62 48.79L293.64 49.87L297.48 50.98L301.16 52.11L304.66 53.26L308 54.42L311.17 55.58L314.18 56.74L317.03 57.89L319.72 59.04L322.25 60.16L324.62 61.27L326.84 62.35L328.91 63.4L330.82 64.41L332.59 65.39L334.21 66.31L335.68 67.18L337.01 68L338.19 68.75L339.24 69.44L340.15 70.05L340.92 70.58L341.55 71.03L342.05 71.4L342.42 71.67L342.67 71.84L342.78 71.9L342.78 72.08L344.13 73.34L345.47 74.62L346.8 75.91L348.11 77.22L349.41 78.54L350.7 79.88L351.98 81.24L353.24 82.61L354.48 84L355.72 85.41L356.94 86.83L358.15 88.27L359.34 89.73L360.52 91.2L361.69 92.69L362.85 94.19L363.99 95.71L365.12 97.25L366.24 98.8L367.35 100.36L368.44 101.95L369.52 103.54L370.58 105.16L371.64 106.79L372.68 108.43L373.71 110.09L374.72 111.77L375.73 113.46L376.72 115.16L377.7 116.89L378.66 118.62L379.62 120.37L380.56 122.14L381.49 123.92L382.41 125.72L383.31 127.53L384.2 129.36L385.09 131.2L385.95 133.06L386.81 134.93L387.46 136.37L388.11 137.81L388.75 139.25L389.4 140.69L390.04 142.14L390.67 143.58L391.31 145.03L391.94 146.48L392.57 147.93L393.19 149.39L393.81 150.84L394.43 152.3L395.04 153.76L395.65 155.21L396.26 156.68L396.86 158.14L397.46 159.6L398.05 161.07L398.64 162.53L399.22 164L399.8 165.47L400.38 166.94L400.95 168.42L401.52 169.89L402.08 171.37L402.64 172.84L403.19 174.32L403.74 175.8L404.28 177.29L404.81 178.77L405.35 180.25L405.87 181.74L406.39 183.23L406.91 184.72L407.41 186.21L407.92 187.7L408.41 189.19L408.9 190.68L409.39 192.18L409.87 193.68L410.66 196.14L411.49 198.58L412.34 201L413.23 203.4L414.15 205.78L415.1 208.14L416.08 210.47L417.1 212.79L418.14 215.08L419.22 217.36L420.33 219.61L421.47 221.84L422.64 224.05L423.85 226.24L425.09 228.41L426.36 230.57L427.66 232.7L428.99 234.8L430.36 236.89L431.76 238.96L433.2 241.01L434.66 243.04L436.16 245.05L437.7 247.04L439.26 249.01L440.86 250.96L442.5 252.89L444.17 254.8L445.87 256.69L447.6 258.56L449.37 260.42L451.17 262.25L453.01 264.06L454.88 265.86L456.79 267.63L458.73 269.39L460.71 271.13L462.72 272.85L464.76 274.55L466.84 276.23L467.86 277.04L468.87 277.86L469.88 278.69L470.89 279.52L471.89 280.36L472.89 281.21L473.88 282.06L474.86 282.92L475.84 283.79L476.82 284.67L477.79 285.55L478.76 286.43L479.72 287.33L480.68 288.22L481.63 289.13L482.57 290.04L483.51 290.95L484.44 291.87L485.37 292.8L486.29 293.73L487.21 294.67L488.12 295.61L489.03 296.56L489.92 297.51L490.82 298.47L491.7 299.43L492.58 300.39L493.46 301.36L494.32 302.34L495.18 303.32L496.04 304.3L496.88 305.29L497.72 306.28L498.56 307.27L499.38 308.27L500.2 309.27L501.02 310.28L501.82 311.29L502.62 312.3L503.41 313.31L504.85 315.2L506.23 317.1L507.54 319.02L508.8 320.94L510.01 322.87L511.14 324.81L512.22 326.76L513.24 328.72L514.2 330.69L515.09 332.67L515.93 334.65L516.7 336.65L517.41 338.65L518.05 340.66L518.63 342.68L519.15 344.71L519.6 346.74L519.99 348.78L520.31 350.83L520.57 352.88L520.76 354.94L520.89 357.01L520.95 359.08L520.94 361.16L520.87 363.25L520.72 365.34L520.51 367.43L520.24 369.53L519.89 371.64L519.47 373.75L518.99 375.86L518.43 377.98L517.81 380.1L517.11 382.23L516.35 384.36L515.51 386.49L514.6 388.63L513.62 390.77L512.57 392.91L511.44 395.06L510.26 397.17L509.03 399.22L507.77 401.22L506.46 403.16L505.12 405.05L503.74 406.88L502.31 408.65L500.85 410.37L499.35 412.04L497.81 413.65L496.24 415.21L494.63 416.71L492.98 418.16L491.3 419.56L489.58 420.9L487.82 422.19L486.03 423.43L484.21 424.62L482.35 425.75L480.46 426.84L478.54 427.87L476.58 428.86L474.59 429.79L472.57 430.68L470.51 431.51L468.43 432.29L466.32 433.03L464.17 433.72L462 434.36L459.79 434.95L457.56 435.49L455.3 435.99L453.01 436.44L450.69 436.84L448.35 437.2L445.97 437.51L443.58 437.77L441.15 437.99L438.7 438.17L436.23 438.29L434.15 438.35L432.08 438.34L430.03 438.27L427.99 438.15L425.97 437.96L423.96 437.73L421.97 437.44L420.01 437.1L418.06 436.72L416.14 436.29L414.24 435.82L412.36 435.31L410.52 434.76L408.7 434.18L406.91 433.57L405.15 432.92L403.43 432.25L401.73 431.55L400.08 430.83L398.46 430.08L396.87 429.32L395.33 428.54L393.83 427.75L392.37 426.94L390.95 426.13L389.58 425.3L388.25 424.47L386.97 423.64L385.75 422.81L384.57 421.99L383.44 421.16L382.36 420.34L381.35 419.53L380.38 418.74L379.47 417.95L378.63 417.18L377.84 416.43L377.11 415.7L376.45 415L375.85 414.31L375.45 413.83L375.04 413.31L374.62 412.77L374.2 412.19L373.76 411.59L373.33 410.96L372.89 410.31L372.44 409.64L372 408.94L371.55 408.23L371.1 407.49L370.65 406.74L370.2 405.98L369.76 405.2L369.31 404.4L368.87 403.6L368.44 402.79L368.01 401.97L367.59 401.14L367.17 400.31L366.76 399.47L366.36 398.63L365.97 397.8L365.59 396.96L365.22 396.12L364.87 395.29L364.52 394.47L364.2 393.65L363.88 392.84L363.59 392.04L363.3 391.25L363.04 390.47L362.8 389.71L362.57 388.96L362.37 388.23L362.18 387.52L362.02 386.83L361.88 386.16L361.77 385.52L361.68 384.9L361.63 384.5L361.58 384.12L361.53 383.75L361.48 383.39L361.43 383.05L361.39 382.71L361.34 382.39L361.28 382.07L361.23 381.77L361.18 381.47L361.12 381.18L361.06 380.9L361 380.63L360.93 380.36L360.86 380.1L360.79 379.85L360.71 379.6L360.63 379.35L360.54 379.11L360.45 378.88L360.35 378.65L360.25 378.42L360.13 378.19L360.02 377.96L359.89 377.74L359.76 377.52L359.62 377.29L359.47 377.07L359.32 376.85L359.15 376.62L358.98 376.4L358.79 376.17L358.6 375.94L358.4 375.7L358.19 375.46L357.96 375.22L357.73 374.97L357.48 374.72L357.22 374.46L356.95 374.2L356.38 375.24L355.77 376.25L355.14 377.24L354.48 378.21L353.8 379.16L353.09 380.08L352.35 380.99L351.59 381.88L350.8 382.75L349.99 383.6L349.16 384.44L348.31 385.26L347.44 386.06L346.55 386.85L345.64 387.63L344.71 388.39L343.76 389.14L342.8 389.88L341.82 390.61L340.83 391.33L339.82 392.04L338.8 392.74L337.77 393.43L336.72 394.12L335.66 394.8L334.59 395.47L333.52 396.14L332.43 396.81L331.33 397.47L330.23 398.13L329.12 398.79L328.01 399.45L326.89 400.11L325.76 400.76L324.63 401.43L323.5 402.09L322.37 402.75L321.24 403.42L320.1 404.1L318.97 404.78L318.09 405.3L317.21 405.82L316.34 406.35L315.47 406.88L314.6 407.42L313.73 407.95L312.86 408.49L312 409.03L311.13 409.57L310.27 410.12L309.41 410.66L308.55 411.21L307.69 411.76L306.83 412.31L305.97 412.86L305.11 413.41L304.26 413.97L303.4 414.52L302.54 415.07L301.69 415.63L300.83 416.18L299.98 416.74L299.12 417.3L298.27 417.85L297.41 418.41L296.55 418.96L295.7 419.51L294.84 420.07L293.98 420.62L293.12 421.17L292.26 421.72L291.4 422.27L290.54 422.82L289.68 423.37L288.82 423.92L287.95 424.46L287.09 425L286.22 425.54L285.35 426.08L284.48 426.62L283.58 427.17L282.69 427.72L281.8 428.29L280.92 428.85L280.05 429.42L279.17 430L278.31 430.59L277.45 431.17L276.59 431.77L275.74 432.37L274.9 432.97L274.06 433.58L273.22 434.2L272.39 434.82L271.57 435.44L270.75 436.07L269.93 436.71L269.12 437.35L268.32 438L267.52 438.65L266.72 439.31L265.93 439.97L265.15 440.64L264.37 441.32L263.59 441.99L262.82 442.68L262.06 443.37L261.3 444.06L260.54 444.77L259.79 445.47L259.05 446.18L258.3 446.9L257.57 447.62L256.84 448.35L256.11 449.08L255.39 449.82L254.67 450.56L253.95 451.31L253.25 452.07L252.54 452.83L251.81 453.62L251.07 454.39L250.31 455.16L249.55 455.91L248.78 456.65L248.01 457.38L247.22 458.1L246.43 458.81L245.63 459.51L244.82 460.2L244 460.88L243.18 461.55L242.35 462.21L241.51 462.86L240.66 463.5L239.81 464.13L238.95 464.75L238.08 465.36L237.21 465.97L236.33 466.57L235.44 467.15L234.54 467.74L233.64 468.31L232.74 468.88L231.83 469.44L230.91 469.99L229.98 470.54L229.05 471.08L228.12 471.62L227.18 472.14L226.23 472.67L225.28 473.19L224.32 473.7L223.36 474.21L222.39 474.71L221.42 475.21L220.44 475.7L219.46 476.19L218.48 476.68L217.49 477.16L216.29 477.74L215.1 478.32L213.91 478.91L212.72 479.5L211.53 480.1L210.35 480.7L209.16 481.3L207.98 481.91L206.8 482.52L205.63 483.14L204.45 483.76L203.27 484.38L202.1 485.01L200.93 485.64L199.75 486.27L198.58 486.9L197.41 487.54L196.23 488.18L195.06 488.82L193.89 489.46L192.72 490.11L191.54 490.76L190.37 491.41L189.19 492.06L188.02 492.71L186.84 493.37L185.66 494.02L184.48 494.68L183.3 495.33L182.12 495.99L180.93 496.65L179.74 497.31L178.55 497.97L177.36 498.63L176.17 499.28L174.97 499.94L173.77 500.6L172.57 501.26L171.36 501.91L170.15 502.57L169.98 502.38L169.81 502.19L169.63 502L169.46 501.8L169.28 501.6L169.11 501.4L168.93 501.2L168.75 501L168.57 500.79L168.39 500.58L168.21 500.37L168.03 500.16L167.84 499.95L167.66 499.74L167.47 499.52L167.28 499.31L167.09 499.09L166.9 498.87L166.71 498.65L166.51 498.44L166.32 498.22L166.12 498L165.92 497.78L165.72 497.56L165.52 497.34L165.32 497.12L165.11 496.9L164.91 496.68L164.7 496.46L164.49 496.24L164.28 496.02L164.07 495.8L163.85 495.59L163.64 495.37L163.42 495.16L163.2 494.94L162.98 494.73L162.76 494.52L162.53 494.31L162.31 494.1L161.82 493.66L161.34 493.22L160.86 492.77L160.38 492.33L159.9 491.88L159.42 491.43L158.94 490.99L158.46 490.54L157.98 490.1L157.5 489.65L157.02 489.2L156.54 488.76L156.06 488.31L155.58 487.87L155.09 487.42L154.61 486.98L154.12 486.54L153.64 486.1L153.15 485.67L152.66 485.23L152.17 484.8L151.67 484.37L151.18 483.94L150.68 483.51L150.18 483.09L149.68 482.67L149.18 482.25L148.67 481.83L148.16 481.42L147.65 481.01L147.14 480.61L146.62 480.21L146.1 479.81L145.58 479.42L145.05 479.03L144.52 478.65L143.99 478.27L143.45 477.9L142.91 477.53L142.37 477.16L141.44 476.53L140.53 475.89L139.64 475.23L138.76 474.57L137.91 473.89L137.06 473.21L136.24 472.51L135.43 471.81L134.63 471.09L133.85 470.37L133.09 469.64L132.34 468.89L131.61 468.14L130.89 467.38L130.19 466.6L129.5 465.82L128.82 465.03L128.16 464.23L127.52 463.42L126.89 462.6L126.27 461.77L125.66 460.93L125.07 460.09L124.49 459.23L123.92 458.36L123.37 457.49L122.83 456.61L122.3 455.72L121.79 454.82L121.28 453.91L120.79 452.99L120.31 452.06L119.84 451.13L119.38 450.19L118.93 449.24L118.5 448.28L118.07 447.31L117.66 446.33L117.25 445.35L116.86 444.36L116.79 444.19L116.72 444.02L116.65 443.86L116.58 443.69L116.51 443.53L116.43 443.36L116.35 443.19L116.26 443.03L116.18 442.87L116.09 442.7L116 442.54L115.91 442.38L115.82 442.21L115.73 442.05L115.63 441.89L115.53 441.73L115.44 441.56L115.34 441.4L115.24 441.24L115.13 441.08L115.03 440.92L114.93 440.76L114.82 440.6L114.71 440.44L114.61 440.28L114.5 440.12L114.39 439.97L114.28 439.81L114.18 439.65L114.07 439.49L113.96 439.34L113.85 439.18L113.74 439.02L113.63 438.87L113.52 438.71L113.41 438.56L113.31 438.4L113.2 438.25L113.09 438.09L112.98 437.94L112.66 437.46L112.33 436.97L112 436.49L111.68 436.01L111.35 435.53L111.02 435.04L110.69 434.56L110.37 434.08L110.04 433.59L109.71 433.11L109.38 432.63L109.05 432.14L108.72 431.66L108.39 431.17L108.06 430.69L107.73 430.2L107.4 429.72L107.07 429.24L106.74 428.75L106.4 428.27L106.07 427.78L105.74 427.3L105.41 426.81L105.08 426.33L104.75 425.84L104.41 425.36L104.08 424.87L103.75 424.39L103.42 423.91L103.08 423.42L102.75 422.94L102.42 422.45L102.09 421.97L101.75 421.49L101.42 421L101.09 420.52L100.75 420.04L100.42 419.56L100.09 419.08L99.76 418.59L99.52 418.26L99.3 417.92L99.08 417.59L98.86 417.25L98.65 416.91L98.44 416.57L98.24 416.23L98.04 415.89L97.84 415.55L97.65 415.2L97.47 414.86L97.28 414.51L97.1 414.17L96.93 413.82L96.76 413.48L96.59 413.13L96.43 412.78L96.27 412.43L96.12 412.08L95.96 411.73L95.81 411.38L95.67 411.03L95.53 410.67L95.39 410.32L95.25 409.97L95.12 409.61L94.99 409.26L94.86 408.9L94.74 408.55L94.61 408.19L94.49 407.83L94.38 407.47L94.26 407.12L94.15 406.76L94.04 406.4L93.93 406.04L93.82 405.68L93.72 405.32L93.62 404.96L93.52 404.6L92.21 404.78L90.92 404.92L89.63 405.04L88.35 405.13L87.08 405.19L85.82 405.22L84.57 405.22L83.33 405.19L82.1 405.13L80.87 405.05L79.65 404.94L78.45 404.8L77.25 404.64L76.06 404.45L74.88 404.23L73.7 403.99L72.53 403.73L71.38 403.44L70.22 403.13L69.08 402.79L67.95 402.43L66.82 402.05L65.7 401.65L64.59 401.22L63.48 400.77L62.38 400.31L61.29 399.82L60.2 399.31L59.13 398.78L58.05 398.23L56.99 397.66L55.93 397.07L54.88 396.47L53.84 395.85L52.8 395.21L51.76 394.55L50.74 393.88L49.72 393.19L48.7 392.48L47.69 391.76L46.14 390.61L44.62 389.45L43.13 388.26L41.68 387.05L40.25 385.83L38.86 384.58L37.49 383.32L36.16 382.03L34.86 380.73L33.58 379.41L32.34 378.07L31.13 376.71L29.95 375.34L28.79 373.94L27.67 372.53L26.57 371.11L25.51 369.66L24.47 368.2L23.47 366.72L22.49 365.23L21.54 363.72L20.62 362.19L19.72 360.65L18.86 359.09L18.02 357.52L17.22 355.93L16.44 354.32L15.68 352.71L14.96 351.07L14.26 349.43L13.59 347.76L12.95 346.09L12.33 344.4L11.74 342.7L11.18 340.98L10.64 339.25L10.13 337.51L9.65 335.76L9.19 333.99L8.76 332.21L8.06 329.09L7.4 325.97L6.78 322.86L6.22 319.76L5.71 316.66L5.25 313.56L4.84 310.47L4.48 307.39L4.18 304.31L3.93 301.24L3.73 298.18L3.6 295.12L3.52 292.07L3.5 289.02L3.54 285.99L3.64 282.96L3.8 279.94L4.03 276.92L4.31 273.92L4.66 270.92L5.08 267.93L5.57 264.96L6.12 261.99L6.74 259.03L7.42 256.08L8.18 253.13L9.01 250.2L9.91 247.28L10.89 244.37L11.94 241.47L13.06 238.58L14.26 235.71L15.54 232.84L16.9 229.99L18.33 227.14L19.84 224.31L21.44 221.49L23.11 218.69L24.87 215.89L26.72 213.11L27.07 212.58L27.43 212.04L27.79 211.51L28.15 210.97L28.52 210.44L28.88 209.91L29.25 209.37L29.62 208.84L30 208.31L30.38 207.79L30.76 207.26L31.14 206.73L31.52 206.21L31.91 205.69L32.3 205.17L32.7 204.65L33.1 204.13L33.5 203.62L33.9 203.11L34.31 202.6L34.72 202.1L35.14 201.6L35.55 201.1L35.97 200.6L36.4 200.11L36.83 199.62L37.26 199.14L37.7 198.65L38.14 198.18L38.58 197.7L39.03 197.24L39.48 196.77L39.94 196.31L40.4 195.86L40.86 195.41L41.33 194.96L41.8 194.52L42.28 194.08L42.76 193.66L43.25 193.23L44.58 192.05L45.88 190.86L47.14 189.65L48.37 188.43L49.57 187.2L50.74 185.95L51.87 184.68L52.98 183.4L54.05 182.11L55.1 180.81L56.11 179.49L57.1 178.15L58.06 176.81L58.99 175.45L59.9 174.08L60.77 172.69L61.62 171.3L62.45 169.89L63.25 168.47L64.03 167.03L64.78 165.59L65.51 164.13L66.21 162.66L66.89 161.18L67.55 159.69L68.19 158.19L68.81 156.68L69.4 155.15L69.98 153.62L70.53 152.07L71.07 150.52L71.58 148.95L72.08 147.38L72.56 145.79L73.02 144.2L73.47 142.6L73.9 140.98L74.31 139.36L74.71 137.73L75.09 136.09L75.14 135.85L75.19 135.61L75.25 135.37L75.3 135.13L75.35 134.89L75.4 134.65L75.46 134.41L75.51 134.17L75.57 133.94L75.62 133.7L75.68 133.46L75.73 133.22L75.79 132.99L75.85 132.75L75.91 132.52L75.97 132.28L76.02 132.04L76.08 131.81L76.14 131.58L76.2 131.34L76.26 131.11L76.33 130.87L76.39 130.64L76.45 130.41L76.51 130.18L76.57 129.94L76.63 129.71L76.7 129.48L76.76 129.25L76.82 129.02L76.88 128.79L76.95 128.56L77.01 128.33L77.07 128.1L77.14 127.87L77.2 127.64L77.26 127.41L77.33 127.18L77.39 126.96L77.46 126.73L77.51 125.49L77.66 124.19L77.89 122.83L78.19 121.43L78.57 119.98L79.03 118.49L79.55 116.96L80.14 115.39L80.78 113.8L81.49 112.18L82.25 110.54L83.06 108.89L83.92 107.22L84.82 105.54L85.76 103.86L86.74 102.18L87.75 100.5L88.79 98.83L89.86 97.18L90.94 95.54L92.05 93.92L93.17 92.33L94.31 90.76L95.45 89.23L96.6 87.74L97.75 86.29L98.89 84.88L100.03 83.53L101.16 82.23L102.28 80.98L103.38 79.8L104.46 78.69L105.51 77.65L106.54 76.68L107.54 75.8L108.5 75L109.43 74.28L110.31 73.66L111.15 73.13L111.94 72.71L112.26 72.54L112.72 72.29L113.33 71.94L114.08 71.52L114.97 71.01L115.98 70.43L117.12 69.78L118.38 69.07L119.75 68.29L121.22 67.46L122.8 66.59L124.48 65.66L126.24 64.7L128.09 63.7L130.01 62.67L132.01 61.62L134.08 60.55L136.2 59.46L138.39 58.36L140.62 57.25L142.9 56.14L145.22 55.04L147.57 53.94L149.95 52.86L152.35 51.8L154.76 50.75L157.19 49.74L159.62 48.76L162.06 47.82L164.48 46.92L166.9 46.07L169.29 45.27L171.67 44.52L174.01 43.84L176.32 43.23L178.59 42.68L180.82 42.22L182.99 41.83L185.1 41.53L187.16 41.33L189.33 41.15L191.38 40.98L193.29 40.82L195.08 40.67L196.74 40.53L198.3 40.4L199.75 40.27L201.09 40.15L202.33 40.04L203.48 39.94L204.55 39.85L205.53 39.76L206.43 39.67L207.26 39.6L208.03 39.53L208.73 39.47L209.38 39.41L209.98 39.36L210.53 39.31L211.04 39.28L211.51 39.24L211.96 39.21L212.38 39.19L212.78 39.17L213.17 39.15L213.55 39.14L213.93 39.14L214.31 39.14L214.69 39.14L215.09 39.14ZM205.67 55.93L204.98 55.94L204.29 55.96L203.59 55.97L202.9 56L202.21 56.02L201.52 56.06L200.83 56.09L200.14 56.13L199.46 56.18L198.77 56.23L198.09 56.28L197.4 56.34L196.72 56.41L196.04 56.48L194.56 56.65L193.09 56.85L191.63 57.06L190.17 57.3L188.73 57.56L187.29 57.84L185.85 58.14L184.42 58.45L183 58.79L181.59 59.15L180.18 59.52L178.77 59.91L177.37 60.31L175.98 60.73L174.59 61.17L173.21 61.62L171.83 62.08L170.46 62.56L169.09 63.05L167.73 63.56L166.37 64.07L165.01 64.6L163.66 65.14L162.31 65.68L160.96 66.24L159.62 66.81L158.28 67.38L156.94 67.97L155.61 68.56L154.28 69.15L152.95 69.76L151.62 70.37L150.29 70.98L148.97 71.6L147.65 72.22L146.32 72.85L145 73.48L143.68 74.11L142.36 74.75L141.05 75.38L139.9 75.94L138.78 76.51L137.66 77.1L136.56 77.69L135.46 78.3L134.39 78.92L133.32 79.55L132.27 80.19L131.22 80.85L130.2 81.51L129.18 82.19L128.17 82.88L127.18 83.58L126.2 84.3L125.23 85.02L124.27 85.76L123.33 86.5L122.4 87.26L121.48 88.04L120.57 88.82L119.67 89.61L118.78 90.42L117.91 91.24L117.04 92.07L116.19 92.91L115.35 93.76L114.52 94.63L113.71 95.5L112.9 96.39L112.11 97.29L111.32 98.2L110.55 99.13L109.79 100.06L109.04 101.01L108.3 101.97L107.57 102.94L106.85 103.92L106.14 104.92L105.45 105.92L104.76 106.94L104.08 107.98L103.41 109.02L102.76 110.06L102.11 111.11L101.48 112.17L100.86 113.23L100.25 114.29L99.65 115.35L99.07 116.42L98.49 117.5L97.93 118.57L97.38 119.66L96.84 120.74L96.31 121.83L95.79 122.92L95.28 124.02L94.78 125.11L94.3 126.22L93.82 127.32L93.35 128.43L92.9 129.55L92.45 130.66L92.02 131.78L91.59 132.91L91.18 134.03L90.77 135.16L90.37 136.3L89.99 137.44L89.61 138.58L89.24 139.72L88.88 140.87L88.54 142.02L88.19 143.17L87.86 144.33L87.54 145.49L87.23 146.65L86.92 147.82L86.62 148.99L86.33 150.16L86.05 151.33L86.04 151.45L86.03 151.56L86.01 151.67L86 151.79L85.98 151.9L85.97 152.01L85.96 152.13L85.94 152.24L85.93 152.36L85.91 152.47L85.9 152.58L85.89 152.7L85.87 152.81L85.86 152.92L85.85 153.04L85.83 153.15L85.82 153.26L85.81 153.38L85.8 153.49L85.78 153.61L85.77 153.72L85.76 153.83L85.75 153.95L85.73 154.06L85.72 154.17L85.71 154.29L85.7 154.4L85.69 154.52L85.68 154.63L85.67 154.74L85.66 154.86L85.65 154.97L85.64 155.08L85.63 155.2L85.62 155.31L85.61 155.42L85.6 155.54L85.6 155.65L85.59 155.77L85.58 155.88L85.53 156.41L85.49 156.94L85.45 157.47L85.41 158L85.37 158.53L85.33 159.06L85.3 159.6L85.26 160.13L85.23 160.66L85.2 161.2L85.16 161.73L85.13 162.27L85.1 162.8L85.06 163.34L85.03 163.87L84.99 164.41L84.95 164.94L84.91 165.48L84.87 166.01L84.83 166.54L84.78 167.08L84.73 167.61L84.67 168.14L84.62 168.67L84.55 169.2L84.49 169.73L84.42 170.26L84.34 170.79L84.26 171.31L84.17 171.84L84.08 172.36L83.98 172.88L83.88 173.4L83.77 173.92L83.65 174.44L83.52 174.96L83.39 175.47L83.24 175.99L83.09 176.5L82.94 177.01L82.43 178.66L81.94 180.32L81.49 181.98L81.06 183.63L80.66 185.29L80.29 186.94L79.95 188.59L79.63 190.24L79.34 191.89L79.07 193.54L78.83 195.19L78.62 196.84L78.43 198.48L78.26 200.13L78.12 201.78L78.01 203.42L77.92 205.06L77.86 206.71L77.82 208.35L77.8 209.99L77.8 211.63L77.83 213.27L77.89 214.91L77.96 216.55L78.06 218.19L78.18 219.83L78.32 221.47L78.49 223.1L78.68 224.74L78.88 226.37L79.11 228.01L79.36 229.64L79.63 231.28L79.92 232.91L80.24 234.55L80.57 236.18L80.92 237.81L81.29 239.44L81.68 241.08L82.09 242.71L82.34 243.7L82.58 244.68L82.82 245.67L83.05 246.65L83.28 247.63L83.49 248.61L83.7 249.59L83.9 250.56L84.08 251.54L84.26 252.51L84.44 253.49L84.6 254.46L84.75 255.43L84.89 256.41L85.02 257.38L85.13 258.35L85.24 259.33L85.33 260.3L85.42 261.28L85.49 262.25L85.54 263.23L85.59 264.21L85.62 265.19L85.64 266.17L85.64 267.15L85.63 268.13L85.6 269.12L85.56 270.11L85.51 271.1L85.43 272.09L85.35 273.09L85.24 274.09L85.12 275.09L84.98 276.09L84.83 277.1L84.66 278.11L84.47 279.13L84.26 280.15L84.03 281.17L83.79 282.2L83.48 283.48L83.18 284.77L82.91 286.05L82.65 287.34L82.41 288.62L82.19 289.91L81.98 291.19L81.79 292.48L81.62 293.77L81.47 295.05L81.33 296.34L81.21 297.63L81.11 298.91L81.02 300.2L80.95 301.49L80.89 302.78L80.85 304.06L80.83 305.35L80.82 306.64L80.83 307.93L80.86 309.22L80.9 310.51L80.96 311.8L81.03 313.09L81.12 314.37L81.22 315.66L81.34 316.95L81.48 318.24L81.63 319.53L81.79 320.82L81.97 322.11L82.17 323.4L82.38 324.69L82.6 325.98L82.84 327.27L83.1 328.56L83.37 329.85L83.65 331.15L83.95 332.44L84.26 333.73L84.35 333.64L84.36 333.66L84.37 333.69L84.37 333.72L84.38 333.75L84.38 333.77L84.39 333.8L84.4 333.83L84.4 333.86L84.41 333.89L84.41 333.92L84.41 333.95L84.42 333.98L84.42 334.01L84.43 334.04L84.43 334.07L84.43 334.1L84.44 334.13L84.44 334.16L84.44 334.19L84.45 334.25L84.46 334.28L84.46 334.31L84.46 334.34L84.47 334.37L84.47 334.4L84.47 334.43L84.48 334.46L84.48 334.49L84.49 334.51L84.49 334.54L84.5 334.57L84.5 334.6L84.51 334.63L84.51 334.66L84.52 334.69L84.52 334.71L84.53 334.74L84.54 334.77L84.54 334.8L84.59 334.98L84.64 335.17L84.69 335.36L84.79 335.74L84.84 335.92L84.89 336.11L84.94 336.3L84.99 336.49L85.04 336.68L85.09 336.87L85.14 337.06L85.19 337.25L85.25 337.44L85.3 337.63L85.35 337.82L85.4 338.01L85.45 338.2L85.51 338.39L85.56 338.58L85.61 338.78L85.67 338.97L85.72 339.16L85.77 339.35L85.83 339.54L85.88 339.73L85.94 339.92L86 340.11L86.05 340.3L86.11 340.49L86.17 340.68L86.23 340.87L86.29 341.06L86.35 341.24L86.41 341.43L86.47 341.62L86.53 341.81L86.59 342L86.65 342.19L86.72 342.37L86.86 342.81L87 343.26L87.14 343.7L87.27 344.14L87.41 344.59L87.55 345.03L87.68 345.48L87.82 345.92L87.95 346.37L88.08 346.82L88.21 347.26L88.34 347.71L88.47 348.16L88.6 348.61L88.73 349.06L88.85 349.51L88.98 349.96L89.1 350.41L89.23 350.86L89.35 351.31L89.47 351.76L89.59 352.21L89.71 352.67L89.83 353.12L89.95 353.57L90.07 354.02L90.18 354.48L90.3 354.93L90.42 355.38L90.53 355.84L90.64 356.29L90.76 356.75L90.87 357.2L90.98 357.65L91.09 358.11L91.2 358.56L91.31 359.02L91.42 359.47L91.52 359.93L91.63 360.38L92.42 361.69L93.26 363.08L94.17 364.53L95.12 366.06L96.13 367.64L97.18 369.29L98.27 370.98L99.41 372.73L100.59 374.52L101.8 376.34L103.04 378.21L104.32 380.1L105.62 382.01L106.94 383.95L108.28 385.9L109.65 387.87L111.03 389.84L112.42 391.81L113.82 393.79L115.23 395.75L116.64 397.7L118.05 399.64L119.46 401.55L120.87 403.44L122.27 405.3L123.66 407.13L125.03 408.91L126.39 410.65L127.73 412.35L129.05 413.99L130.34 415.57L131.6 417.09L132.84 418.54L134.04 419.92L135.21 421.22L136.33 422.45L137.41 423.58L138.45 424.63L139.44 425.58L140.39 426.44L141.47 427.37L142.56 428.26L143.66 429.1L144.76 429.9L145.86 430.65L146.97 431.36L148.08 432.02L149.2 432.63L150.32 433.2L151.44 433.73L152.57 434.21L153.7 434.64L154.83 435.03L155.97 435.38L157.11 435.67L158.26 435.93L159.4 436.14L160.55 436.3L161.71 436.42L162.86 436.49L164.02 436.52L165.18 436.5L166.34 436.44L167.51 436.33L168.68 436.18L169.85 435.98L171.02 435.74L172.19 435.45L173.37 435.12L174.55 434.74L175.73 434.31L176.91 433.85L178.09 433.33L179.27 432.78L180.46 432.17L181.65 431.53L182.83 430.83L184.02 430.1L185.21 429.32L186.4 428.49L186.61 428.34L186.81 428.19L187.02 428.05L187.22 427.9L187.43 427.75L187.63 427.61L187.84 427.46L188.04 427.31L188.25 427.16L188.45 427.01L188.66 426.87L188.86 426.72L189.07 426.57L189.27 426.42L189.47 426.27L189.68 426.12L189.88 425.97L190.08 425.82L190.29 425.67L190.49 425.51L190.69 425.36L190.89 425.21L191.09 425.05L191.29 424.9L191.49 424.75L191.69 424.59L191.89 424.44L192.09 424.28L192.29 424.12L192.49 423.96L192.68 423.8L192.88 423.64L193.08 423.48L193.27 423.32L193.47 423.16L193.66 423L193.86 422.83L194.05 422.67L194.24 422.5L194.43 422.34L195.41 421.5L196.4 420.67L197.4 419.86L198.4 419.05L199.41 418.26L200.43 417.47L201.45 416.7L202.48 415.94L203.52 415.18L204.56 414.44L205.61 413.71L206.67 412.98L207.73 412.27L208.8 411.57L209.87 410.87L210.96 410.19L212.05 409.51L213.14 408.85L214.24 408.2L215.35 407.55L216.46 406.92L217.58 406.29L218.71 405.67L219.84 405.07L220.98 404.47L222.12 403.88L223.27 403.3L224.43 402.73L225.59 402.17L226.76 401.62L227.93 401.07L229.11 400.54L230.3 400.01L231.49 399.49L232.68 398.99L233.89 398.49L235.09 398L236.31 397.51L237.52 397.04L238.75 396.57L238.95 396.5L239.16 396.43L239.37 396.35L239.57 396.28L239.78 396.21L239.99 396.13L240.2 396.06L240.41 395.98L240.62 395.91L240.83 395.83L241.04 395.75L241.25 395.68L241.46 395.6L241.67 395.52L241.87 395.44L242.08 395.36L242.29 395.28L242.5 395.2L242.71 395.12L242.92 395.04L243.12 394.95L243.33 394.87L243.54 394.78L243.74 394.69L243.95 394.61L244.15 394.52L244.35 394.42L244.55 394.33L244.75 394.24L244.95 394.14L245.15 394.05L245.35 393.95L245.54 393.85L245.74 393.75L245.93 393.64L246.12 393.54L246.31 393.43L246.5 393.32L246.69 393.21L246.87 393.1L247.62 392.65L248.36 392.2L249.1 391.75L249.85 391.3L250.59 390.85L251.33 390.4L252.07 389.95L252.81 389.5L253.56 389.05L254.3 388.6L255.04 388.15L255.78 387.69L256.52 387.24L257.26 386.79L257.99 386.33L258.73 385.88L259.47 385.42L260.21 384.96L260.95 384.51L261.68 384.05L262.42 383.59L263.16 383.13L263.89 382.67L264.63 382.21L265.36 381.75L266.1 381.29L266.83 380.83L267.57 380.36L268.3 379.9L269.04 379.43L269.77 378.97L270.5 378.5L271.24 378.03L271.97 377.56L272.7 377.09L273.43 376.62L274.16 376.15L274.89 375.68L275.62 375.21L276.35 374.73L276.51 374.64L276.66 374.54L276.81 374.44L276.97 374.33L277.11 374.22L277.26 374.11L277.41 373.99L277.55 373.88L277.7 373.75L277.84 373.63L277.98 373.5L278.11 373.37L278.25 373.24L278.39 373.11L278.52 372.97L278.65 372.83L278.78 372.69L278.9 372.55L279.03 372.41L279.15 372.26L279.27 372.11L279.39 371.96L279.51 371.81L279.63 371.66L279.74 371.51L279.85 371.35L279.96 371.19L280.07 371.04L280.17 370.88L280.27 370.72L280.37 370.56L280.47 370.4L280.57 370.24L280.66 370.08L280.75 369.92L280.84 369.76L280.93 369.6L281.01 369.44L281.09 369.28L281.17 369.12L281.42 368.6L281.68 368.08L281.93 367.57L282.19 367.06L282.46 366.55L282.73 366.05L283 365.55L283.28 365.06L283.56 364.57L283.85 364.08L284.14 363.6L284.44 363.12L284.74 362.64L285.05 362.17L285.36 361.7L285.68 361.24L286 360.78L286.33 360.33L286.67 359.88L287.01 359.43L287.35 358.99L287.71 358.56L288.07 358.13L288.43 357.7L288.8 357.28L289.18 356.86L289.57 356.45L289.96 356.04L290.36 355.64L290.77 355.24L291.18 354.85L291.6 354.46L292.03 354.08L292.47 353.7L292.91 353.33L293.36 352.96L293.82 352.6L294.29 352.25L294.77 351.9L295.25 351.56L295.77 351.18L296.27 350.81L296.76 350.42L297.24 350.03L297.7 349.63L298.15 349.23L298.58 348.81L299 348.4L299.41 347.97L299.8 347.54L300.18 347.1L300.55 346.66L300.91 346.21L301.25 345.76L301.58 345.3L301.89 344.83L302.2 344.36L302.49 343.88L302.77 343.4L303.03 342.91L303.29 342.41L303.53 341.91L303.76 341.41L303.98 340.9L304.19 340.39L304.38 339.87L304.56 339.34L304.74 338.81L304.9 338.28L305.04 337.74L305.18 337.2L305.31 336.65L305.42 336.1L305.53 335.54L305.62 334.98L305.7 334.42L305.78 333.85L305.84 333.28L305.89 332.7L305.93 332.12L306 330.34L306.09 328.57L306.18 326.79L306.27 325.02L306.38 323.25L306.49 321.47L306.62 319.7L306.75 317.94L306.88 316.17L307.03 314.4L307.18 312.64L307.35 310.87L307.51 309.11L307.69 307.35L307.88 305.59L308.07 303.83L308.27 302.07L308.48 300.32L308.7 298.56L308.93 296.81L309.16 295.06L309.41 293.3L309.66 291.55L309.92 289.8L310.18 288.06L310.46 286.31L310.74 284.56L311.03 282.82L311.33 281.07L311.64 279.33L311.96 277.59L312.28 275.85L312.62 274.11L312.96 272.37L313.31 270.63L313.67 268.9L314.04 267.16L314.41 265.43L314.8 263.7L315.19 261.96L315.31 261.45L315.44 260.93L315.57 260.41L315.7 259.89L315.84 259.37L315.98 258.85L316.13 258.33L316.27 257.81L316.42 257.28L316.56 256.76L316.71 256.24L316.85 255.71L317 255.19L317.14 254.66L317.28 254.13L317.42 253.61L317.56 253.08L317.7 252.55L317.83 252.03L317.95 251.5L318.07 250.97L318.19 250.45L318.3 249.92L318.41 249.4L318.5 248.87L318.6 248.35L318.68 247.82L318.76 247.3L318.82 246.78L318.88 246.26L318.93 245.73L318.97 245.22L319 244.7L319.02 244.18L319.03 243.66L319.02 243.15L319 242.63L318.97 242.12L318.93 241.61L318.87 241.1L318.76 240.06L318.66 239.02L318.58 237.98L318.53 236.95L318.49 235.93L318.47 234.91L318.47 233.89L318.49 232.89L318.53 231.88L318.59 230.88L318.66 229.89L318.75 228.9L318.86 227.91L318.98 226.93L319.12 225.95L319.27 224.98L319.44 224L319.63 223.04L319.83 222.07L320.04 221.11L320.27 220.15L320.51 219.2L320.77 218.25L321.04 217.3L321.32 216.35L321.61 215.4L321.92 214.46L322.23 213.52L322.56 212.58L322.9 211.64L323.25 210.71L323.61 209.77L323.98 208.84L324.36 207.91L324.74 206.97L325.14 206.04L325.55 205.11L325.96 204.18L326.38 203.25L326.81 202.32L326.88 202.18L326.95 202.03L327.02 201.88L327.09 201.73L327.16 201.58L327.23 201.42L327.3 201.27L327.37 201.12L327.43 200.96L327.5 200.81L327.57 200.65L327.63 200.49L327.7 200.34L327.76 200.18L327.83 200.02L327.89 199.86L327.96 199.7L328.02 199.54L328.08 199.38L328.14 199.22L328.21 199.05L328.27 198.89L328.33 198.73L328.39 198.56L328.45 198.4L328.51 198.23L328.57 198.07L328.62 197.9L328.68 197.74L328.74 197.57L328.79 197.41L328.85 197.24L328.9 197.07L328.96 196.91L329.01 196.74L329.06 196.57L329.12 196.41L329.17 196.24L329.22 196.07L329.27 195.91L329.25 195.64L329.23 195.37L329.2 195.1L329.18 194.84L329.16 194.57L329.14 194.3L329.13 194.03L329.11 193.77L329.09 193.5L329.07 193.23L329.05 192.96L329.03 192.7L329.01 192.43L328.99 192.16L328.97 191.89L328.95 191.63L328.94 191.36L328.92 191.09L328.9 190.82L328.88 190.56L328.86 190.29L328.84 190.02L328.82 189.75L328.8 189.49L328.78 189.22L328.76 188.95L328.73 188.68L328.71 188.42L328.69 188.15L328.67 187.88L328.65 187.62L328.62 187.35L328.6 187.08L328.57 186.81L328.55 186.55L328.52 186.28L328.5 186.01L328.47 185.74L328.44 185.48L328.42 185.21L328.35 184.57L328.28 183.93L328.2 183.28L328.12 182.64L328.04 182L327.95 181.36L327.86 180.72L327.77 180.08L327.67 179.44L327.56 178.8L327.46 178.16L327.35 177.53L327.24 176.89L327.13 176.25L327.02 175.61L326.9 174.97L326.78 174.33L326.66 173.69L326.54 173.05L326.42 172.42L326.3 171.78L326.17 171.14L326.05 170.5L325.93 169.86L325.8 169.22L325.68 168.58L325.55 167.95L325.43 167.31L325.31 166.67L325.19 166.03L325.07 165.39L324.95 164.75L324.83 164.11L324.72 163.47L324.6 162.83L324.49 162.19L324.38 161.55L324.27 160.91L324.17 160.26L324.07 159.62L324.05 159.48L324.04 159.33L324.02 159.18L324.01 159.03L324.01 158.87L324.01 158.72L324.01 158.56L324.01 158.4L324.02 158.24L324.03 158.08L324.04 157.91L324.06 157.75L324.08 157.58L324.1 157.4L324.12 157.23L324.14 157.05L324.17 156.87L324.2 156.68L324.23 156.49L324.26 156.3L324.29 156.11L324.33 155.91L324.36 155.7L324.4 155.5L324.43 155.28L324.47 155.07L324.51 154.85L324.55 154.62L324.59 154.39L324.63 154.16L324.67 153.92L324.71 153.67L324.75 153.42L324.79 153.17L324.83 152.91L324.87 152.64L324.9 152.37L324.94 152.09L324.98 151.8L325.02 151.51L324.9 151.33L324.78 151.14L324.65 150.94L324.53 150.73L324.39 150.52L324.26 150.31L324.12 150.09L323.97 149.86L323.82 149.62L323.67 149.38L323.52 149.14L323.36 148.89L323.2 148.64L323.03 148.38L322.87 148.11L322.7 147.84L322.52 147.57L322.35 147.29L322.17 147.01L321.99 146.73L321.81 146.44L321.63 146.15L321.44 145.86L321.25 145.56L321.06 145.26L320.87 144.96L320.68 144.65L320.49 144.35L320.29 144.04L320.1 143.73L319.9 143.41L319.71 143.1L319.51 142.78L319.31 142.47L319.11 142.15L318.91 141.83L318.71 141.51L318.51 141.19L318.32 140.87L318.12 140.55L319.82 139.21L320.01 139.27L320.2 139.33L320.39 139.39L320.58 139.45L320.78 139.51L320.97 139.58L321.16 139.64L321.35 139.7L321.55 139.76L321.74 139.83L321.93 139.89L322.13 139.96L322.32 140.02L322.52 140.09L322.71 140.15L322.91 140.22L323.11 140.29L323.31 140.35L323.5 140.42L323.7 140.49L323.9 140.56L324.11 140.63L324.31 140.7L324.51 140.77L324.72 140.84L324.92 140.91L325.13 140.98L325.34 141.06L325.55 141.13L325.76 141.2L325.97 141.28L326.18 141.35L326.4 141.43L326.61 141.5L326.83 141.58L327.05 141.66L327.27 141.73L327.49 141.81L327.72 141.89L327.94 141.97L327.53 141.58L327.13 141.19L326.72 140.8L326.32 140.41L325.91 140.02L325.51 139.64L325.12 139.26L324.72 138.88L324.32 138.5L323.93 138.12L323.54 137.74L323.15 137.37L322.76 136.99L322.37 136.62L321.98 136.25L321.6 135.88L321.21 135.51L320.83 135.14L320.45 134.77L320.07 134.41L319.69 134.04L319.31 133.68L318.93 133.31L318.55 132.95L318.17 132.58L317.79 132.22L317.42 131.86L317.04 131.5L316.67 131.14L316.29 130.78L315.92 130.42L315.54 130.06L315.17 129.7L314.42 128.98L313.67 128.26L313.29 127.9L312.92 127.53L312.54 127.17L312.59 127.11L312.64 127.05L312.69 126.99L312.74 126.93L312.79 126.87L312.83 126.81L312.88 126.75L312.93 126.69L312.98 126.63L313.02 126.57L313.07 126.51L313.12 126.45L313.16 126.39L313.21 126.33L313.26 126.27L313.3 126.21L313.35 126.15L313.4 126.09L313.44 126.03L313.53 125.91L313.58 125.85L313.63 125.79L313.67 125.73L313.72 125.67L313.76 125.61L313.81 125.55L313.86 125.49L313.9 125.43L313.95 125.37L314 125.31L314.05 125.25L314.09 125.19L314.14 125.13L314.19 125.07L314.24 125.01L314.29 124.95L314.33 124.89L314.38 124.83L314.43 124.77L323.5 128.24L322.26 127.58L321.1 126.89L320.01 126.17L318.99 125.43L318.04 124.67L317.15 123.88L316.33 123.06L315.56 122.23L314.85 121.37L314.19 120.5L313.57 119.6L313 118.69L312.47 117.76L311.98 116.82L311.52 115.85L311.1 114.88L310.7 113.89L310.32 112.89L309.96 111.88L309.63 110.86L309.3 109.83L308.99 108.79L308.68 107.74L308.37 106.69L308.07 105.63L307.76 104.57L307.45 103.5L307.12 102.43L306.78 101.36L306.43 100.29L306.05 99.22L305.65 98.14L305.23 97.08L304.77 96.01L304.28 94.95L303.75 93.89L303.19 92.84L302.57 91.8L301.91 90.76L301.2 89.73L300.79 89.18L300.35 88.63L299.87 88.07L299.37 87.5L298.84 86.94L298.29 86.36L297.71 85.79L297.11 85.21L296.49 84.63L295.85 84.05L295.19 83.47L294.52 82.88L293.84 82.3L293.14 81.71L292.43 81.12L291.71 80.54L290.99 79.95L290.25 79.36L289.52 78.77L288.78 78.19L288.04 77.6L287.3 77.02L286.56 76.44L285.82 75.86L285.09 75.29L284.37 74.71L283.65 74.14L282.94 73.58L282.25 73.02L281.57 72.46L280.9 71.9L280.24 71.36L279.61 70.81L278.99 70.27L278.4 69.74L277.82 69.22L277.28 68.7L276.75 68.18L276.26 67.68L275.79 67.18L275.43 67.02L275.08 66.86L274.72 66.71L274.36 66.55L274 66.4L273.64 66.25L273.27 66.1L272.91 65.96L272.54 65.81L272.17 65.67L271.8 65.53L271.43 65.39L271.06 65.26L270.69 65.12L270.31 64.99L269.94 64.86L269.56 64.73L269.18 64.6L268.8 64.47L268.42 64.35L268.03 64.23L267.65 64.1L267.26 63.98L266.87 63.87L266.49 63.75L266.1 63.64L265.7 63.52L265.31 63.41L264.92 63.3L264.52 63.19L264.12 63.08L263.72 62.98L263.32 62.88L262.92 62.77L262.52 62.67L262.11 62.57L261.71 62.47L261.3 62.38L260.89 62.28L260.48 62.19L259.58 61.98L258.68 61.78L257.77 61.59L256.87 61.4L255.96 61.21L255.06 61.03L254.15 60.85L253.24 60.68L252.33 60.51L251.41 60.35L250.5 60.19L249.59 60.03L248.67 59.88L247.76 59.73L246.84 59.58L245.92 59.44L245 59.31L244.08 59.17L243.16 59.04L242.24 58.91L241.32 58.78L240.4 58.66L239.48 58.54L238.55 58.42L237.63 58.31L236.7 58.2L235.78 58.09L234.85 57.98L233.93 57.88L233 57.77L232.07 57.67L231.15 57.57L230.22 57.48L229.29 57.38L228.36 57.29L227.44 57.19L226.51 57.1L225.58 57.01L224.65 56.92L223.72 56.84L223.04 56.77L222.35 56.71L221.66 56.64L220.97 56.58L220.27 56.53L219.58 56.47L218.89 56.42L218.2 56.36L217.5 56.31L216.81 56.27L216.11 56.22L215.42 56.18L214.72 56.14L214.02 56.11L213.33 56.07L212.63 56.04L211.94 56.02L211.24 55.99L210.54 55.97L209.85 55.96L209.15 55.94L208.45 55.93L207.76 55.93L207.06 55.93L206.37 55.93L205.67 55.93Z" id="ji3n0YsnX"></path><path d="M101.83 345.67C117.8 340.95 132.73 335.33 136.79 317.86C146.72 322.94 154.94 322.05 163.53 318.57C166.27 317.5 171.09 319.2 173.93 321.07C177.8 323.65 180.83 327.49 184.13 330.87C195.09 341.75 208.51 347.19 224.39 347.54C225.52 347.54 226.56 347.81 227.88 347.99C208.23 365.37 169.3 362.07 154.18 341.57C140.01 357.88 116.86 360.11 101.83 345.67Z" id="b21YENqS8"></path><path d="M263.03 226.66C243 222.83 223.53 224.25 204.07 229.96C199.35 231.39 194.05 231.03 188.57 231.48C189.05 229.25 189.05 228.62 189.24 228.53C209.36 219.35 230.05 211.77 252.92 212.4C263.13 212.67 272.39 215.52 278.72 223.63C278.62 224.52 278.43 225.41 278.34 226.3C273.24 226.48 267.94 227.55 263.03 226.66Z" id="j94w5aHMlC"></path><path d="M129.42 227.55C118.56 224.25 107.98 221.05 96.35 224.88C93.99 225.68 90.87 224.25 87.94 223.81C90.78 215.52 96.73 211.06 105.33 211.33C120.54 211.68 132.83 218.91 144.64 226.75C144.35 227.73 144.16 228.62 143.88 229.51C139.06 228.89 134.05 228.98 129.42 227.55Z" id="a2F2Ss2gz"></path><path d="M77.49 139.07L389.8 142.77" id="b9qWGhmIH"></path><path d="M375.9 156.65C417.53 179.05 415.73 204.95 439.04 250.87C454.55 281.47 487.89 287.04 539.03 267.6" id="a5FBVL4qo"></path><path d="M369.42 125.66C416.31 117.64 431.85 138.81 479.9 160.17C511.92 174.43 541.41 158.41 568.36 112.1" id="c1mDiarG9r"></path></defs><g><g><g><use xlink:href="#bcM5jrGv" opacity="1" fill="#ffffff" fill-opacity="1"></use><g><use xlink:href="#bcM5jrGv" opacity="1" fill-opacity="0" stroke="#000000" stroke-width="1" stroke-opacity="0"></use></g></g><g><use xlink:href="#ji3n0YsnX" opacity="1" fill="#212120" fill-opacity="1"></use><g><use xlink:href="#ji3n0YsnX" opacity="1" fill-opacity="0" stroke="#000000" stroke-width="1" stroke-opacity="0"></use></g></g><g><use xlink:href="#b21YENqS8" opacity="1" fill="#212120" fill-opacity="1"></use><g><use xlink:href="#b21YENqS8" opacity="1" fill-opacity="0" stroke="#000000" stroke-width="1" stroke-opacity="0"></use></g></g><g><use xlink:href="#j94w5aHMlC" opacity="1" fill="#212120" fill-opacity="1"></use><g><use xlink:href="#j94w5aHMlC" opacity="1" fill-opacity="0" stroke="#000000" stroke-width="1" stroke-opacity="0"></use></g></g><g><use xlink:href="#a2F2Ss2gz" opacity="1" fill="#212120" fill-opacity="1"></use><g><use xlink:href="#a2F2Ss2gz" opacity="1" fill-opacity="0" stroke="#000000" stroke-width="1" stroke-opacity="0"></use></g></g><g><use xlink:href="#b9qWGhmIH" opacity="1" fill="#000000" fill-opacity="0"></use><g><use xlink:href="#b9qWGhmIH" opacity="1" fill-opacity="0" stroke="#ff0000" stroke-width="73" stroke-opacity="1"></use></g></g><g><use xlink:href="#a5FBVL4qo" opacity="1" fill="#000000" fill-opacity="0"></use><g><use xlink:href="#a5FBVL4qo" opacity="1" fill-opacity="0" stroke="#ff0000" stroke-width="38" stroke-opacity="1"></use></g></g><g><use xlink:href="#c1mDiarG9r" opacity="1" fill="#000000" fill-opacity="0"></use><g><use xlink:href="#c1mDiarG9r" opacity="1" fill-opacity="0" stroke="#ff0000" stroke-width="38" stroke-opacity="1"></use></g></g></g></g></svg>