<?xml version="1.0" encoding="UTF-8" standalone="no"?>
<!-- Generator: Adobe Illustrator 22.0.1, SVG Export Plug-In . SVG Version: 6.00 Build 0)  -->

<svg
   xmlns:dc="http://purl.org/dc/elements/1.1/"
   xmlns:cc="http://creativecommons.org/ns#"
   xmlns:rdf="http://www.w3.org/1999/02/22-rdf-syntax-ns#"
   xmlns:svg="http://www.w3.org/2000/svg"
   xmlns="http://www.w3.org/2000/svg"
   xmlns:sodipodi="http://sodipodi.sourceforge.net/DTD/sodipodi-0.dtd"
   xmlns:inkscape="http://www.inkscape.org/namespaces/inkscape"
   version="1.1"
   id="Layer_1"
   x="0px"
   y="0px"
   viewBox="0 0 100 100"
   style="enable-background:new 0 0 100 100;"
   xml:space="preserve"
   sodipodi:docname="callscreen.svg"
   inkscape:version="0.92.2 5c3e80d, 2017-08-06"><metadata
     id="metadata11"><rdf:RDF><cc:Work
         rdf:about=""><dc:format>image/svg+xml</dc:format><dc:type
           rdf:resource="http://purl.org/dc/dcmitype/StillImage" /><dc:title></dc:title></cc:Work></rdf:RDF></metadata><defs
     id="defs9"><style
       id="style3886">.cls-1{fill:#00ce1b;}</style></defs><sodipodi:namedview
     pagecolor="rgba(0,0,0,0)"
     bordercolor="#666666"
     borderopacity="0"
     objecttolerance="10"
     gridtolerance="10"
     guidetolerance="10"
     inkscape:pageopacity="0"
     inkscape:pageshadow="2"
     inkscape:window-width="1010"
     inkscape:window-height="733"
     id="namedview7"
     showgrid="false"
     inkscape:zoom="4.72"
     inkscape:cx="71.756805"
     inkscape:cy="46.939278"
     inkscape:window-x="152"
     inkscape:window-y="30"
     inkscape:window-maximized="0"
     inkscape:current-layer="Layer_1" /><g
     id="g4"><path
       d="M69.2,7H31.8C28,7,25,10,25,13.8v73.4c0,3.7,3,6.8,6.8,6.8h37.4c3.7,0,6.8-3,6.8-6.8V13.8C76,10,73,7,69.2,7z M43,11h15   v2.8c0,0.1-0.1,0.2-0.1,0.2H43.1c0,0-0.1-0.1-0.1-0.2V11z M72,87.2c0,1.5-1.3,2.8-2.8,2.8H31.8c-1.5,0-2.8-1.3-2.8-2.8V13.8   c0-1.5,1.3-2.8,2.8-2.8H39v2.8c0,2.3,1.8,4.2,4.1,4.2h14.8c2.3,0,4.1-1.9,4.1-4.2V11h7.2c1.5,0,2.8,1.3,2.8,2.8V87.2z"
       id="path2"
       fill="#00ce1b" /></g><style
     id="style3757"
     type="text/css">
	.st0{fill:none;}
	.st1{fill:#00ce1b;}
	.st2{fill:#00ce1b;}
</style><g
     data-name="Layer 2"
     id="Layer_2"
     transform="matrix(0.84586208,0,0,0.84586208,32.020022,34.356296)"><g
       id="Miscellaneous"><g
         data-name="Stack 2@2x.png"
         id="Stack_2_2x.png"><path
           id="path3892"
           d="m 44,22 a 3,3 0 0 0 -1.61,-2.64 v 0 l -3.5,-1.86 3.51,-1.85 v 0 a 3,3 0 0 0 0,-5.29 v 0 l -19,-10 v 0 a 2.88,2.88 0 0 0 -2.78,0 v 0 l -19,10 v 0 a 3,3 0 0 0 0,5.29 v 0 L 5.11,17.5 1.6,19.35 v 0 a 3,3 0 0 0 0,5.29 v 0 L 5.11,26.5 1.6,28.35 v 0 a 3,3 0 0 0 0,5.29 v 0 l 19,10 v 0 a 2.88,2.88 0 0 0 2.78,0 v 0 l 19,-10 v 0 a 3,3 0 0 0 0,-5.29 v 0 L 38.89,26.5 42.4,24.65 v 0 A 3,3 0 0 0 44,22 Z M 2.53,13.88 v 0 a 1,1 0 0 1 0,-1.75 v 0 l 19,-10 v 0 a 0.9,0.9 0 0 1 0.92,0 v 0 l 19,10 v 0 a 1,1 0 0 1 0,1.75 v 0 l -19,10 v 0 a 0.9,0.9 0 0 1 -0.92,0 v 0 z m 38.94,16.24 v 0 a 1,1 0 0 1 0,1.75 v 0 l -19,10 v 0 a 0.9,0.9 0 0 1 -0.92,0 v 0 l -19,-10 v 0 a 1,1 0 0 1 0,-1.75 v 0 l 4.72,-2.48 13.35,7 v 0 a 2.88,2.88 0 0 0 2.78,0 v 0 l 13.35,-7 z m 0,-7.24 v 0 l -19,10 v 0 a 0.9,0.9 0 0 1 -0.92,0 v 0 l -19,-10 v 0 a 1,1 0 0 1 0,-1.75 v 0 l 4.72,-2.48 13.35,7 v 0 a 2.88,2.88 0 0 0 2.78,0 v 0 l 13.35,-7 4.72,2.48 v 0 a 1,1 0 0 1 0,1.75 z"
           class="cls-1"
           inkscape:connector-curvature="0"
           style="fill:#00ce1b" /></g></g></g></svg>
