<svg xmlns="http://www.w3.org/2000/svg" viewBox="0 0 90.56 102.76"><defs><style>.cls-1,.cls-5,.cls-6{fill:none;}.cls-1,.cls-5{stroke:#333;}.cls-1,.cls-6{stroke-linecap:round;}.cls-1{stroke-linejoin:round;stroke-width:2.76px;}.cls-2{fill:#fff;}.cls-3{fill:#333;}.cls-4{fill:#00ce1b;}.cls-5,.cls-6{stroke-miterlimit:10;stroke-width:2.36px;}.cls-6{stroke:#00ce1b;}</style></defs><title>Asset 1</title><g id="Layer_2" data-name="Layer 2"><g id="Isolation_Mode" data-name="Isolation Mode"><path class="cls-1" d="M56.77,53.62V93.76a7.59,7.59,0,0,1-7.55,7.62H8.93a7.6,7.6,0,0,1-7.55-7.62V9A7.59,7.59,0,0,1,8.93,1.38H49.22A7.58,7.58,0,0,1,56.77,9V22.87"/><path class="cls-2" d="M22.22,11.11a.2.2,0,0,1-.2-.21.21.21,0,0,1,.2-.21h22a.21.21,0,0,1,.2.21.2.2,0,0,1-.2.21Z"/><path class="cls-3" d="M44.25,9.31h-22a1.59,1.59,0,0,0,0,3.18h22a1.59,1.59,0,0,0,0-3.18Z"/><path class="cls-3" d="M17.24,10.9a1.57,1.57,0,1,1-1.57-1.59A1.58,1.58,0,0,1,17.24,10.9Z"/><path class="cls-4" d="M29.08,85.31a2.76,2.76,0,1,1-2.76,2.76,2.76,2.76,0,0,1,2.76-2.76m0-2.75a5.51,5.51,0,1,0,5.5,5.51,5.51,5.51,0,0,0-5.5-5.51Z"/><rect class="cls-5" x="34.3" y="29.01" width="55.08" height="18.9" rx="3.15" ry="3.15"/><line class="cls-6" x1="39.96" y1="35.7" x2="64.61" y2="35.7"/><line class="cls-6" x1="39.96" y1="41.23" x2="82.97" y2="41.23"/></g></g></svg>
