<svg xmlns="http://www.w3.org/2000/svg" viewBox="0 0 732.92 714.22"><defs><style>.cls-1{fill:#fff;}.cls-2{fill:red;}.cls-3{fill:#00ce1b;}</style></defs><title>Datový zdroj 1</title><g id="Vrstva_2" data-name="Vrstva 2"><g id="Vrstva_1-2" data-name="Vrstva 1"><path class="cls-1" d="M95.05,225a8,8,0,0,0-10.44,4.27,306.63,306.63,0,0,0,201.31,414,7.25,7.25,0,0,0,2.1.3,8,8,0,0,0,2.11-15.7A290.6,290.6,0,0,1,99.32,235.42,8,8,0,0,0,95.05,225Z"/><path class="cls-1" d="M650.66,288a8,8,0,0,0,7.79,6.35,7.66,7.66,0,0,0,1.62-.18,8,8,0,0,0,6.2-9.44A306.59,306.59,0,0,0,232.06,72.18a8,8,0,1,0,7,14.37A290.65,290.65,0,0,1,650.66,288Z"/><path class="cls-1" d="M227.86,8.57C89.29,65.34-.15,198.81,0,348.57A367.15,367.15,0,0,0,47.82,529.43a7.44,7.44,0,0,0,2,2.2c63.65,109.09,182,182.58,317.1,182.58h.41a8,8,0,0,0,0-16h-.41C173.59,698.23,16.21,541.07,16,347.74l0-.12c.23-142.88,85.68-270.06,217.93-324.27a8,8,0,0,0-6-14.78Z"/><path class="cls-1" d="M475.48,5.39a8,8,0,0,0,5,10.17A351,351,0,0,1,716.94,347a8,8,0,0,0,8,8h0a8,8,0,0,0,8-8A367.08,367.08,0,0,0,485.62.44,8,8,0,0,0,475.48,5.39Z"/><path class="cls-2" d="M288,643.53a8.52,8.52,0,0,1-2.1-.27,306.7,306.7,0,0,1-201.31-414,8,8,0,1,1,14.71,6.18A290.64,290.64,0,0,0,290.15,627.83a8,8,0,0,1-2.13,15.7Z"/><path class="cls-3" d="M658.45,294.33a7.93,7.93,0,0,1-7.79-6.35A290.65,290.65,0,0,0,239.06,86.55a8,8,0,0,1-7-14.37A306.59,306.59,0,0,1,666.27,284.71a8,8,0,0,1-6.2,9.44A7.66,7.66,0,0,1,658.45,294.33Z"/><path class="cls-3" d="M211.53,537.38a7.84,7.84,0,0,1-5.21-1.93,247,247,0,0,1-26.6-348.37,8,8,0,1,1,12.1,10.39,231,231,0,0,0,24.9,325.88,8,8,0,0,1-5.19,14Z"/><path class="cls-3" d="M140.51,278.08a7.73,7.73,0,0,1-2.59-.43A8,8,0,0,1,133,267.5,247.16,247.16,0,0,1,366.25,101h.32a245.77,245.77,0,0,1,135,40.18,8,8,0,1,1-8.75,13.35A229.89,229.89,0,0,0,366.57,117h-.29A231.14,231.14,0,0,0,148.06,272.7,8,8,0,0,1,140.51,278.08Z"/><path class="cls-3" d="M366.88,714.21C164.78,714.21.26,549.91,0,347.74a8,8,0,0,1,8-8H8a8,8,0,0,1,8,8c.21,193.33,157.59,350.49,350.88,350.49h.41a8,8,0,1,1-.41,16Z"/><path class="cls-2" d="M54.77,533.47a8,8,0,0,1-7-4.07A367.15,367.15,0,0,1,0,348.57C-.15,198.81,89.29,65.34,227.86,8.57a8.08,8.08,0,0,1,10.42,4.36,8,8,0,0,1-4.37,10.42C101.37,77.65,15.81,205.32,16,348.57a351.06,351.06,0,0,0,45.73,173,8,8,0,0,1-3,10.88A8.1,8.1,0,0,1,54.77,533.47Z"/><path class="cls-2" d="M724.91,354.92a8,8,0,0,1-8-8A351,351,0,0,0,480.43,15.56a8,8,0,0,1-4.95-10.17A8.08,8.08,0,0,1,485.62.44,367,367,0,0,1,732.88,347a8,8,0,0,1-8,8Z"/><path class="cls-3" d="M667.79,625.74a15.51,15.51,0,0,1-6.4,11.55,20.8,20.8,0,0,1-12.24,4.26q-103.21,1.34-192.37-49.12a382,382,0,0,1-138.59-135q-52.77-87.79-54.11-191A20.76,20.76,0,0,1,268,254a15.52,15.52,0,0,1,11.38-6.7l84.94-20.77A18.47,18.47,0,0,1,377.47,228a17.58,17.58,0,0,1,9.14,9.71L427.13,329a17.79,17.79,0,0,1,1,11.87A24.44,24.44,0,0,1,421.7,352l-48.64,40.79A288.29,288.29,0,0,0,434,477.61a301,301,0,0,0,86,58.28l39.5-49.67a24.33,24.33,0,0,1,11-6.7,17.71,17.71,0,0,1,11.89.66l92.27,38.13a17.67,17.67,0,0,1,9.95,8.88,18.54,18.54,0,0,1,1.81,13.09Z"/></g></g></svg>
