<?xml version="1.0" encoding="UTF-8" standalone="no"?>
<!DOCTYPE svg PUBLIC "-//W3C//DTD SVG 1.1//EN" "http://www.w3.org/Graphics/SVG/1.1/DTD/svg11.dtd">
<svg version="1.1" xmlns="http://www.w3.org/2000/svg" xmlns:xlink="http://www.w3.org/1999/xlink" preserveAspectRatio="xMidYMid meet" viewBox="0 0 640 640" width="640" height="640"><defs><path d="M510.33 487.64C510.06 491.67 508.01 495.37 504.74 497.73C501.66 500.08 497.92 501.38 494.05 501.45C403.92 502.62 342.87 462.85 326.07 458.56C276.28 430.3 234.6 389.7 205.05 340.67C158.97 264.01 162.52 190.57 157.8 173.89C157.74 170 158.95 166.19 161.22 163.03C163.5 159.7 167.14 157.56 171.16 157.18C178.58 155.37 237.91 140.86 245.33 139.05C249.18 138.04 253.28 138.5 256.81 140.33C260.48 142 263.35 145.04 264.79 148.81C268.33 156.78 296.64 220.55 300.18 228.53C301.65 231.78 301.96 235.44 301.05 238.89C300.08 242.57 298.14 245.93 295.44 248.61C291.19 252.17 257.21 280.67 252.96 284.23C266.04 311.95 284.08 337.05 306.18 358.29C328.07 379.48 353.48 396.7 381.27 409.19C384.72 404.85 412.32 370.15 415.77 365.81C418.38 363.04 421.7 361.01 425.37 359.96C428.79 358.95 432.46 359.15 435.75 360.54C443.81 363.87 508.27 390.5 516.33 393.83C520.12 395.18 523.24 397.97 525.01 401.59C526.93 405.08 527.49 409.14 526.59 413.02C523.34 427.94 513.58 472.72 510.33 487.64Z" id="b2zDanTkbC"></path><path d="M287 176.83L150.7 222.97" id="d3QE3eIPG"></path><path d="M158.8 226.29C143.86 242.37 148.46 253.85 145.01 277.98C142.72 294.06 128.93 301.33 103.66 299.8" id="aw7eTJ1X8"></path><path d="M157.39 211.22C135.66 214.26 131.97 226.07 114.06 242.59C102.13 253.61 86.85 250.55 68.22 233.4" id="egcxAhYwj"></path></defs><g><g><g><g></g><use xlink:href="#b2zDanTkbC" opacity="1" fill="#ffffff" fill-opacity="1"></use><g><use xlink:href="#b2zDanTkbC" opacity="1" fill-opacity="0" stroke="#000000" stroke-width="1" stroke-opacity="0"></use></g><g></g></g><g><g></g><g><use xlink:href="#d3QE3eIPG" opacity="1" fill-opacity="0" stroke="#ff0000" stroke-width="38" stroke-opacity="1"></use></g><g></g></g><g><g></g><g><use xlink:href="#aw7eTJ1X8" opacity="1" fill-opacity="0" stroke="#ff0000" stroke-width="18" stroke-opacity="1"></use></g><g></g></g><g><g></g><g><use xlink:href="#egcxAhYwj" opacity="1" fill-opacity="0" stroke="#ff0000" stroke-width="18" stroke-opacity="1"></use></g><g></g></g></g></g></svg>