<?xml version="1.0" encoding="UTF-8" standalone="no"?>
<!DOCTYPE svg PUBLIC "-//W3C//DTD SVG 1.1//EN" "http://www.w3.org/Graphics/SVG/1.1/DTD/svg11.dtd">
<svg version="1.1" xmlns="http://www.w3.org/2000/svg" xmlns:xlink="http://www.w3.org/1999/xlink" preserveAspectRatio="xMidYMid meet" viewBox="0 0 640 640" width="640" height="640"><defs><path d="M465.91 326.47L465.91 401.07L615.38 401.07L615.38 326.47L540.64 251.61L540.64 251.61L465.91 326.47Z" id="b2XOcXqvx"></path><path d="M540.74 251.66L453.82 338.57L441 325.75L540.64 226.23L640.29 325.56L627.46 338.38L627.46 338.38L540.74 251.66Z" id="bCamID0zm"></path><path d="M540.64 264.3L465.91 339.1L465.91 326.32L540.64 251.61L615.38 326.32L615.38 339.08L615.38 339.08L540.64 264.3Z" id="cTdXHhRZT"></path><path d="M465.91 396.47L465.91 471.07L615.38 471.07L615.38 396.47L540.64 321.61L540.64 321.61L465.91 396.47Z" id="ctGTeyczw"></path><path d="M561.79 409.97C561.79 409.97 561.79 409.97 561.79 409.97C561.79 446.63 561.79 467 561.79 471.07C561.79 471.07 561.79 471.07 561.79 471.07C536.41 471.07 522.31 471.07 519.49 471.07C519.49 471.07 519.49 471.07 519.49 471.07C519.49 434.41 519.49 414.04 519.49 409.97C519.49 409.97 519.49 409.97 519.49 409.97C544.87 409.97 558.97 409.97 561.79 409.97Z" id="edbhcW7L2"></path><path d="M25.91 326.47L25.91 401.07L175.38 401.07L175.38 326.47L100.64 251.61L100.64 251.61L25.91 326.47Z" id="cIst1vt5X"></path><path d="M100.74 251.66L13.82 338.57L1 325.75L100.64 226.23L200.29 325.56L187.46 338.38L187.46 338.38L100.74 251.66Z" id="a4hhv3fMl"></path><path d="M100.64 264.3L25.91 339.1L25.91 326.32L100.64 251.61L175.38 326.32L175.38 339.08L175.38 339.08L100.64 264.3Z" id="b3x49atrjy"></path><path d="M25.91 396.47L25.91 471.07L175.38 471.07L175.38 396.47L100.64 321.61L100.64 321.61L25.91 396.47Z" id="c5Igc7P7HA"></path><path d="M121.79 409.97C121.79 409.97 121.79 409.97 121.79 409.97C121.79 446.63 121.79 467 121.79 471.07C121.79 471.07 121.79 471.07 121.79 471.07C96.41 471.07 82.31 471.07 79.49 471.07C79.49 471.07 79.49 471.07 79.49 471.07C79.49 434.41 79.49 414.04 79.49 409.97C79.49 409.97 79.49 409.97 79.49 409.97C104.87 409.97 118.97 409.97 121.79 409.97Z" id="c1hr4FNEZ0"></path><path d="M246.91 326.47L246.91 401.07L396.38 401.07L396.38 326.47L321.64 251.61L321.64 251.61L246.91 326.47Z" id="e1urQVAwMZ"></path><path d="M321.74 251.66L234.82 338.57L222 325.75L321.64 226.23L421.29 325.56L408.46 338.38L408.46 338.38L321.74 251.66Z" id="bepOHns3t"></path><path d="M321.64 264.3L246.91 339.1L246.91 326.32L321.64 251.61L396.38 326.32L396.38 339.08L396.38 339.08L321.64 264.3Z" id="b29obyRWKT"></path><path d="M246.91 396.47L246.91 471.07L396.38 471.07L396.38 396.47L321.64 321.61L321.64 321.61L246.91 396.47Z" id="a1lVhmaGY1"></path><path d="M342.79 409.97C342.79 409.97 342.79 409.97 342.79 409.97C342.79 446.63 342.79 467 342.79 471.07C342.79 471.07 342.79 471.07 342.79 471.07C317.41 471.07 303.31 471.07 300.49 471.07C300.49 471.07 300.49 471.07 300.49 471.07C300.49 434.41 300.49 414.04 300.49 409.97C300.49 409.97 300.49 409.97 300.49 409.97C325.87 409.97 339.97 409.97 342.79 409.97Z" id="cE30axqgO"></path><path d="M617.5 362.06L461.75 361.25" id="c3XO48maLL"></path><path d="M468.87 367.49C447.92 378.67 448.58 392.02 436.55 415.46C428.54 431.09 411.86 433.67 386.54 423.21" id="aTxfqZAvg"></path><path d="M472.74 351.6C449.43 347.05 441.49 357.83 417.34 368.41C401.25 375.47 386.69 366.96 373.67 342.88" id="a3opRQ8d24"></path></defs><g><g><g><g><use xlink:href="#b2XOcXqvx" opacity="1" fill="#d3cfc9" fill-opacity="1"></use><g><use xlink:href="#b2XOcXqvx" opacity="1" fill-opacity="0" stroke="#000000" stroke-width="1" stroke-opacity="0"></use></g></g><g><use xlink:href="#bCamID0zm" opacity="1" fill="#70685d" fill-opacity="1"></use><g><use xlink:href="#bCamID0zm" opacity="1" fill-opacity="0" stroke="#000000" stroke-width="1" stroke-opacity="0"></use></g></g><g><use xlink:href="#cTdXHhRZT" opacity="1" fill="#b9b3a9" fill-opacity="1"></use><g><use xlink:href="#cTdXHhRZT" opacity="1" fill-opacity="0" stroke="#000000" stroke-width="1" stroke-opacity="0"></use></g></g><g><use xlink:href="#ctGTeyczw" opacity="1" fill="#d3cfc9" fill-opacity="1"></use><g><use xlink:href="#ctGTeyczw" opacity="1" fill-opacity="0" stroke="#000000" stroke-width="1" stroke-opacity="0"></use></g></g><g><use xlink:href="#edbhcW7L2" opacity="1" fill="#96151d" fill-opacity="1"></use><g><use xlink:href="#edbhcW7L2" opacity="1" fill-opacity="0" stroke="#000000" stroke-width="1" stroke-opacity="0"></use></g></g></g><g><g><use xlink:href="#cIst1vt5X" opacity="1" fill="#d3cfc9" fill-opacity="1"></use><g><use xlink:href="#cIst1vt5X" opacity="1" fill-opacity="0" stroke="#000000" stroke-width="1" stroke-opacity="0"></use></g></g><g><use xlink:href="#a4hhv3fMl" opacity="1" fill="#70685d" fill-opacity="1"></use><g><use xlink:href="#a4hhv3fMl" opacity="1" fill-opacity="0" stroke="#000000" stroke-width="1" stroke-opacity="0"></use></g></g><g><use xlink:href="#b3x49atrjy" opacity="1" fill="#b9b3a9" fill-opacity="1"></use><g><use xlink:href="#b3x49atrjy" opacity="1" fill-opacity="0" stroke="#000000" stroke-width="1" stroke-opacity="0"></use></g></g><g><use xlink:href="#c5Igc7P7HA" opacity="1" fill="#d3cfc9" fill-opacity="1"></use><g><use xlink:href="#c5Igc7P7HA" opacity="1" fill-opacity="0" stroke="#000000" stroke-width="1" stroke-opacity="0"></use></g></g><g><use xlink:href="#c1hr4FNEZ0" opacity="1" fill="#96151d" fill-opacity="1"></use><g><use xlink:href="#c1hr4FNEZ0" opacity="1" fill-opacity="0" stroke="#000000" stroke-width="1" stroke-opacity="0"></use></g></g></g><g><g><use xlink:href="#e1urQVAwMZ" opacity="1" fill="#d3cfc9" fill-opacity="1"></use><g><use xlink:href="#e1urQVAwMZ" opacity="1" fill-opacity="0" stroke="#000000" stroke-width="1" stroke-opacity="0"></use></g></g><g><use xlink:href="#bepOHns3t" opacity="1" fill="#70685d" fill-opacity="1"></use><g><use xlink:href="#bepOHns3t" opacity="1" fill-opacity="0" stroke="#000000" stroke-width="1" stroke-opacity="0"></use></g></g><g><use xlink:href="#b29obyRWKT" opacity="1" fill="#b9b3a9" fill-opacity="1"></use><g><use xlink:href="#b29obyRWKT" opacity="1" fill-opacity="0" stroke="#000000" stroke-width="1" stroke-opacity="0"></use></g></g><g><use xlink:href="#a1lVhmaGY1" opacity="1" fill="#d3cfc9" fill-opacity="1"></use><g><use xlink:href="#a1lVhmaGY1" opacity="1" fill-opacity="0" stroke="#000000" stroke-width="1" stroke-opacity="0"></use></g></g><g><use xlink:href="#cE30axqgO" opacity="1" fill="#96151d" fill-opacity="1"></use><g><use xlink:href="#cE30axqgO" opacity="1" fill-opacity="0" stroke="#000000" stroke-width="1" stroke-opacity="0"></use></g></g></g><g><g><use xlink:href="#c3XO48maLL" opacity="1" fill="#000000" fill-opacity="0"></use><g><use xlink:href="#c3XO48maLL" opacity="1" fill-opacity="0" stroke="#ff0000" stroke-width="38" stroke-opacity="1"></use></g></g><g><use xlink:href="#aTxfqZAvg" opacity="1" fill="#000000" fill-opacity="0"></use><g><use xlink:href="#aTxfqZAvg" opacity="1" fill-opacity="0" stroke="#ff0000" stroke-width="18" stroke-opacity="1"></use></g></g><g><use xlink:href="#a3opRQ8d24" opacity="1" fill="#000000" fill-opacity="0"></use><g><use xlink:href="#a3opRQ8d24" opacity="1" fill-opacity="0" stroke="#ff0000" stroke-width="18" stroke-opacity="1"></use></g></g></g></g></g></svg>