<?xml version="1.0" encoding="UTF-8" standalone="no"?>
<!DOCTYPE svg PUBLIC "-//W3C//DTD SVG 1.1//EN" "http://www.w3.org/Graphics/SVG/1.1/DTD/svg11.dtd">
<svg version="1.1" xmlns="http://www.w3.org/2000/svg" xmlns:xlink="http://www.w3.org/1999/xlink" preserveAspectRatio="xMidYMid meet" viewBox="0 0 640 400" width="640" height="400"><defs><path d="M0 400.05C64.08 400.05 576.76 400.05 640.84 400.05C595.88 319.47 469.39 261.54 320.48 261.54C171.57 261.54 45.08 319.47 0 400.05Z" id="a3pUQpsMc"></path><path d="M213.96 340.14C213.96 341.62 209.05 342.83 202.99 342.83C196.92 342.83 192.01 341.62 192.01 340.14C192.01 338.66 196.92 337.45 202.99 337.45C209.05 337.45 213.96 338.66 213.96 340.14Z" id="b1GzKD6bME"></path><path d="M148.79 322.62C148.79 325.01 140.95 326.94 131.28 326.94C121.6 326.94 113.76 325.01 113.76 322.62C113.76 320.23 121.6 318.3 131.28 318.3C140.95 318.3 148.79 320.23 148.79 322.62Z" id="adI1ne7Et"></path><path d="M80 358.24C80 359.08 77.34 359.76 74.05 359.76C70.76 359.76 68.09 359.08 68.09 358.24C68.09 357.4 70.76 356.72 74.05 356.72C77.34 356.72 80 357.4 80 358.24Z" id="d7Q82FV1yW"></path><path d="M282.05 357.07C282.05 357.91 279.39 358.59 276.1 358.59C272.81 358.59 270.14 357.91 270.14 357.07C270.14 356.24 272.81 355.56 276.1 355.56C279.39 355.56 282.05 356.24 282.05 357.07Z" id="d7mRPR1sGv"></path><path d="M412.04 374.13C412.04 375.29 408.38 376.23 403.87 376.23C399.35 376.23 395.69 375.29 395.69 374.13C395.69 372.97 399.35 372.02 403.87 372.02C408.38 372.02 412.04 372.97 412.04 374.13Z" id="a1v0tGyuT8"></path><path d="M552.66 360.93C552.66 363.51 544.35 365.6 534.09 365.6C523.84 365.6 515.52 363.51 515.52 360.93C515.52 358.35 523.84 356.26 534.09 356.26C544.35 356.26 552.66 358.35 552.66 360.93Z" id="a13hfrcaNL"></path><path d="M419.29 243.09C396.22 243.09 211.69 243.09 188.62 243.09C182.78 243.09 177.99 238.3 177.99 232.46C177.99 232.46 177.99 232.46 177.99 232.46C177.99 226.62 182.78 221.83 188.62 221.83C211.69 221.83 396.22 221.83 419.29 221.83C425.24 221.71 429.91 226.5 429.91 232.46C429.91 232.46 429.91 232.46 429.91 232.46C426.72 239.54 423.18 243.09 419.29 243.09Z" id="a2pjzcQMvj"></path><path d="M327.84 157.24C297.75 157.24 57.06 157.24 26.98 157.24C21.14 157.24 16.35 152.45 16.35 146.61C16.35 146.61 16.35 146.61 16.35 146.61C16.35 140.77 21.14 135.99 26.98 135.99C57.06 135.99 297.75 135.99 327.84 135.99C333.68 135.99 338.47 140.77 338.47 146.61C338.47 146.61 338.47 146.61 338.47 146.61C335.27 153.7 331.73 157.24 327.84 157.24Z" id="a1m3vKHehT"></path><path d="M487.96 224.05C447.78 224.05 126.37 224.05 86.19 224.05C74.75 224.05 65.4 214.7 65.4 203.26C65.4 203.26 65.4 203.26 65.4 203.26C65.4 191.81 74.75 182.47 86.19 182.47C126.37 182.47 447.78 182.47 487.96 182.47C499.41 182.47 508.75 191.81 508.75 203.26C508.75 203.26 508.75 203.26 508.75 203.26C502.52 217.12 495.59 224.05 487.96 224.05Z" id="c6tg69syi6"></path><path d="M206.14 171.84C191.41 171.84 73.59 171.84 58.86 171.84C53.49 171.84 49.05 167.52 49.05 162.03C49.05 162.03 49.05 162.03 49.05 162.03C49.05 156.66 53.37 152.22 58.86 152.22C73.6 152.22 191.52 152.22 206.26 152.22C211.51 152.34 215.95 156.66 215.95 162.03C215.95 162.03 215.95 162.03 215.95 162.03C213.07 168.57 209.8 171.84 206.14 171.84Z" id="av4iUN6In"></path><path d="M350.5 201.16C343.3 201.16 285.75 201.16 278.55 201.16C275.05 201.16 272.13 187.61 272.13 170.91C272.13 170.91 272.13 170.91 272.13 170.91C272.13 154.21 275.05 140.66 278.55 140.66C285.75 140.66 343.3 140.66 350.5 140.66C354.12 140.66 356.92 154.21 356.92 170.91C356.92 170.91 356.92 170.91 356.92 170.91C354.97 191.07 352.83 201.16 350.5 201.16Z" id="g6ztbR07q2"></path><path d="M324.68 176.75C319.21 176.75 275.39 176.75 269.91 176.75C261.85 176.75 255.43 170.21 255.43 162.26C255.43 162.26 255.43 162.26 255.43 162.26C255.43 154.21 261.97 147.78 269.91 147.78C275.39 147.78 319.21 147.78 324.68 147.78C332.74 147.78 339.17 154.32 339.17 162.26C339.17 162.26 339.17 162.26 339.17 162.26C334.81 171.92 329.98 176.75 324.68 176.75Z" id="a2t7vpbMHX"></path><path d="M251.81 302.3C251.74 238.18 251.7 202.56 251.69 195.43C251.69 169.04 273.06 147.67 299.46 147.67C302.93 147.67 330.68 147.67 334.14 147.67C360.54 147.67 381.91 169.04 381.91 195.43C381.92 202.56 381.96 238.18 382.03 302.3L251.81 302.3Z" id="e8M9H81Sm"></path><path d="M288.36 144.28L291.63 131.31L344.77 131.31L344.77 144.28L288.36 144.28Z" id="a3FmXLhQ9n"></path><path d="M345.47 85.65C343.84 86.35 342.32 87.17 340.8 88.1C332.04 83.55 322.46 81.09 312.3 81.09C302.26 81.09 292.8 83.55 284.04 87.98C281.35 85.65 278.32 83.78 275.05 82.5C273.3 81.79 271.43 81.21 269.56 80.86C269.44 84.6 269.91 88.33 271.08 91.96C272.13 95.34 273.88 98.5 276.1 101.42C276.57 102.12 277.15 102.7 277.73 103.28C277.97 111.81 281.47 119.64 286.96 125.47C293.15 132.02 301.91 136.1 311.6 136.1C329.94 136.1 344.77 121.62 345.47 103.52C345.59 103.4 345.71 103.28 345.82 103.17C351.31 97.44 354.12 90.44 354.47 83.31C351.43 83.66 348.39 84.48 345.47 85.65Z" id="a5PAcbXJAO"></path><path d="M348.28 85.9C346.64 86.6 345.01 87.41 343.37 88.47C334.14 83.68 323.98 80.99 313.24 80.99C302.61 80.99 292.57 83.56 283.46 88.23C280.65 85.78 277.38 83.79 274 82.51C272.13 81.81 270.14 81.22 268.27 80.76C268.16 84.73 268.62 88.7 269.91 92.44C271.08 95.94 272.83 99.33 275.28 102.48C275.86 103.18 276.33 103.77 276.92 104.47C277.27 113.58 280.89 121.75 286.61 127.83C293.15 134.72 302.38 139.04 312.65 139.04C331.92 139.04 347.69 123.74 348.39 104.58C348.51 104.47 348.63 104.35 348.74 104.23C354.35 98.51 357.39 91.04 357.74 83.44C354.47 83.79 351.31 84.61 348.28 85.9Z" id="aFv2AIVT8"></path><path d="M343.37 88.47C334.14 83.68 323.98 80.99 313.24 80.99C302.61 80.99 292.57 83.56 283.46 88.23C280.65 85.78 277.38 83.79 274 82.51C273.65 82.39 273.3 82.28 272.94 82.16C273.18 84.38 273.65 86.6 274.35 88.7C275.51 92.2 277.27 95.59 279.72 98.74C280.3 99.44 280.77 100.03 281.35 100.73C281.7 109.84 285.32 118.01 291.05 124.09C297.59 130.98 306.81 135.3 317.09 135.3C324.8 135.3 331.92 132.85 337.76 128.76C343.95 122.57 347.93 114.16 348.39 104.7C348.51 104.58 348.63 104.47 348.74 104.35C354.35 98.39 357.27 90.92 357.74 83.44C354.47 83.79 351.31 84.61 348.28 85.9C346.64 86.6 345.01 87.41 343.37 88.47Z" id="a1TKBefbjv"></path><path d="M300.74 107.61C297.7 107.61 295.25 105.15 295.25 102.12C295.25 99.08 297.7 96.63 300.74 96.63C303.78 96.63 306.23 99.08 306.23 102.12C306.23 105.15 303.78 107.61 300.74 107.61Z" id="hRb3EjHYA"></path><path d="M327.14 96.63C324.1 96.63 321.65 99.08 321.65 102.12C321.65 105.15 324.1 107.61 327.14 107.61C330.17 107.61 332.63 105.15 332.63 102.12C332.63 99.08 330.17 96.63 327.14 96.63Z" id="d5lwaXcpwb"></path><path d="M283.57 101.65C283.57 101.65 284.74 89.15 291.05 85.65C298.52 81.68 316.63 82.38 324.1 86.47C315.99 89.5 306.11 105.85 283.57 101.65Z" id="d1ag4boLYU"></path><path d="M308.11 82.42L309.21 82.47L310.3 82.54L311.38 82.63L312.44 82.74L313.48 82.86L314.51 83.01L315.51 83.17L316.49 83.34L317.45 83.53L318.38 83.74L319.27 83.96L320.14 84.2L320.97 84.45L321.77 84.71L322.53 84.99L323.25 85.27L323.93 85.57L324.57 85.88L325.38 86.35L324.8 87.05L324.64 87.18L324.27 87.52L323.69 88.05L322.92 88.75L321.96 89.58L320.81 90.53L319.5 91.58L318.02 92.69L316.37 93.85L314.58 95.04L312.64 96.22L310.57 97.38L308.37 98.49L306.05 99.53L303.61 100.47L301.07 101.29L298.43 101.98L295.7 102.49L292.89 102.82L290 102.93L289.66 102.93L289.33 102.93L289 102.92L288.68 102.91L288.35 102.89L288.02 102.87L287.7 102.85L287.37 102.83L287.05 102.8L286.73 102.77L286.4 102.74L286.08 102.71L285.75 102.67L285.43 102.63L285.1 102.59L284.78 102.55L284.45 102.5L284.12 102.45L283.79 102.4L283.46 102.35L282.87 102.23L282.99 101.65L283 101.48L283.03 101.14L283.09 100.66L283.17 100.05L283.29 99.32L283.44 98.5L283.63 97.59L283.86 96.61L284.13 95.58L284.45 94.51L284.82 93.42L285.23 92.32L285.71 91.24L286.24 90.17L286.83 89.15L287.49 88.18L288.21 87.29L289.01 86.48L289.87 85.77L290.81 85.18L291.32 84.92L291.86 84.68L292.43 84.44L293.03 84.22L293.66 84L294.32 83.8L295 83.61L295.71 83.44L296.45 83.27L297.21 83.12L297.99 82.99L298.79 82.86L299.62 82.75L300.46 82.65L301.33 82.57L302.21 82.5L303.1 82.45L304.01 82.41L304.94 82.39L305.88 82.38L307 82.39L308.11 82.42ZM303.77 83.7L302.8 83.74L301.85 83.8L300.92 83.87L300.01 83.97L299.13 84.07L298.27 84.2L297.44 84.33L296.64 84.49L295.86 84.66L295.12 84.84L294.41 85.04L293.74 85.25L293.09 85.47L292.49 85.71L291.92 85.97L291.4 86.23L290.57 86.78L289.81 87.43L289.11 88.17L288.47 89L287.88 89.89L287.35 90.83L286.87 91.81L286.44 92.81L286.05 93.82L285.72 94.83L285.42 95.82L285.17 96.78L284.95 97.69L284.78 98.54L284.63 99.32L284.52 100.01L284.44 100.59L284.39 101.07L284.7 101.12L285.01 101.17L285.32 101.22L285.64 101.27L285.95 101.31L286.26 101.34L286.57 101.37L286.88 101.4L287.19 101.43L287.5 101.45L287.82 101.47L288.13 101.49L288.44 101.5L288.75 101.51L289.06 101.52L289.37 101.53L289.68 101.53L290 101.53L292.73 101.43L295.39 101.12L297.98 100.64L300.49 100L302.91 99.22L305.23 98.33L307.45 97.35L309.56 96.3L311.54 95.2L313.41 94.07L315.14 92.93L316.73 91.81L318.17 90.72L319.46 89.69L320.59 88.74L321.55 87.9L322.33 87.17L322.93 86.58L322.25 86.3L321.52 86.02L320.74 85.76L319.93 85.51L319.08 85.27L318.2 85.05L317.28 84.84L316.33 84.64L315.35 84.47L314.36 84.3L313.33 84.16L312.29 84.03L311.23 83.92L310.16 83.83L309.07 83.76L307.97 83.71L306.87 83.67L305.76 83.66L304.76 83.67L303.77 83.7Z" id="cV659WyT"></path><path d="M303.78 90.79C303.54 90.55 303.54 90.09 303.78 89.85C304.13 89.5 304.48 89.04 304.83 88.69C305.06 88.33 305.53 88.33 305.76 88.57C306.11 88.8 306.11 89.27 305.88 89.5C305.53 89.97 305.18 90.44 304.71 90.79C304.6 90.9 304.48 91.02 304.25 91.02C304.01 91.02 303.89 90.9 303.78 90.79Z" id="b2LIQXzXx"></path><path d="M289.3 97.8C289.18 97.44 289.41 97.09 289.76 96.98C289.76 96.98 295.6 95.58 300.39 92.42C300.74 92.19 301.09 92.31 301.33 92.66C301.56 93.01 301.44 93.36 301.09 93.59C296.19 96.74 290.35 98.26 290.11 98.26C290.11 98.38 290.11 98.38 290 98.38C289.65 98.38 289.41 98.15 289.3 97.8Z" id="bejswBfj"></path><path d="M399.43 96.74C390.08 96.74 382.5 104.33 382.5 113.68C382.5 123.03 390.08 130.61 399.43 130.61C408.78 130.61 416.37 123.03 416.37 113.68C416.37 104.33 408.78 96.74 399.43 96.74Z" id="b1D44RPaiT"></path><path d="M277.85 261.66C272.04 261.66 267.34 266.36 267.34 272.17C267.34 277.97 272.04 282.68 277.85 282.68C283.66 282.68 288.36 277.97 288.36 272.17C288.36 266.36 283.66 261.66 277.85 261.66Z" id="blqNmee5A"></path><path d="M381.68 105.04C376.91 105.04 373.04 108.91 373.04 113.68C373.04 118.45 376.91 122.32 381.68 122.32C386.45 122.32 390.32 118.45 390.32 113.68C390.32 108.91 386.45 105.04 381.68 105.04Z" id="d1yOh1flpe"></path><path d="M364.28 110.99C362.21 110.99 360.54 112.67 360.54 114.73C360.54 116.79 362.21 118.47 364.28 118.47C366.34 118.47 368.01 116.79 368.01 114.73C368.01 112.67 366.34 110.99 364.28 110.99Z" id="l5TPGecfPL"></path><path d="M343.95 145.21C343.95 145.21 343.95 145.21 343.95 145.21C339.98 146.03 336.13 143.46 335.31 139.49C335.31 139.49 335.31 139.49 335.31 139.49C334.49 135.52 337.06 131.66 341.03 130.85C341.03 130.85 341.03 130.85 341.03 130.85C345.01 130.15 348.86 132.72 349.68 136.57C349.68 136.57 349.68 136.57 349.68 136.57C348.51 141.79 346.6 144.67 343.95 145.21Z" id="a3IfAc1s9"></path><path d="M286.38 256.52C286.38 256.52 286.38 256.52 286.38 256.52C286.38 263.1 286.38 266.76 286.38 267.49C286.38 267.49 286.38 267.49 286.38 267.49C273.9 267.49 266.97 267.49 265.59 267.49C265.59 267.49 265.59 267.49 265.59 267.49C265.59 260.91 265.59 257.25 265.59 256.52C265.59 256.52 265.59 256.52 265.59 256.52C278.06 256.52 284.99 256.52 286.38 256.52Z" id="b1nAgplimO"></path><path d="M371.28 133.77C368.96 134.25 350.37 138.08 348.04 138.56C350.5 143.34 355.98 146.03 361.47 144.86C366.96 143.69 370.93 139.14 371.28 133.77Z" id="d13kaDLGWk"></path><path d="M286.14 178.97C286.14 178.97 286.14 178.97 286.14 178.97C286.14 225.85 286.14 251.89 286.14 257.1C286.14 257.1 286.14 257.1 286.14 257.1C272.48 257.1 264.89 257.1 263.37 257.1C263.37 257.1 263.37 257.1 263.37 257.1C263.37 210.22 263.37 184.17 263.37 178.97C263.37 178.97 263.37 178.97 263.37 178.97C277.03 178.97 284.62 178.97 286.14 178.97Z" id="g1zJSsT1PJ"></path><path d="M325.15 400.17L325.15 281.39L344.42 281.39L352.83 281.39L352.83 400.17L325.15 400.17Z" id="a1rBSBQKiZ"></path><path d="M287.19 295.29L287.19 239.7L309.5 239.7L319.19 239.7L319.19 295.29L287.19 295.29Z" id="b1fAOapt8K"></path><path d="M319.19 295.29L319.19 239.7L342.55 239.7L352.71 239.7L352.71 295.29L319.19 295.29Z" id="hn1Mi1QY4"></path><path d="M318.96 286.53L318.96 226.27L342.32 226.27L352.48 226.27L352.48 281.86L318.96 286.53Z" id="a1hwcmHYKS"></path><path d="M287.19 277.77L287.19 262.47L304.6 262.47L312.3 262.47L312.3 277.77L287.19 277.77Z" id="iCK4gtXME"></path><path d="M324.33 277.77L324.33 262.47L344.42 262.47L353.18 262.47L353.18 277.77L324.33 277.77Z" id="b20fRqMzi4"></path><path d="M306.11 273.57L306.11 267.49L326.32 267.49L335.08 267.49L335.08 273.57L306.11 273.57Z" id="c1QVPgZSLe"></path><path d="M288.01 400.17L288.01 283.03L306.46 283.03L314.64 283.03L314.64 400.17L288.01 400.17Z" id="f5FeOkYwQy"></path><path d="M326.2 159.58C326.2 159.58 326.2 159.58 326.2 159.58C326.2 206.32 326.2 232.29 326.2 237.48C326.2 237.48 326.2 237.48 326.2 237.48C312.96 237.48 305.6 237.48 304.13 237.48C304.13 237.48 304.13 237.48 304.13 237.48C304.13 190.74 304.13 164.77 304.13 159.58C304.13 159.58 304.13 159.58 304.13 159.58C317.37 159.58 324.73 159.58 326.2 159.58Z" id="c1qhVlncg0"></path><path d="M327.72 266.33L316.74 250.79L307.4 266.09L286.14 266.09L286.14 164.95L301.21 163.78L319.08 211.9L332.39 164.95L352.6 164.95L352.6 266.09L327.72 266.33Z" id="a4k6ZF2Oeo"></path><path d="M299.22 172.66L302.14 169.62L324.57 217.86L302.38 231.06L299.22 172.66Z" id="n2eXkjO4fC"></path><path d="M301.56 168.81L304.48 165.65L324.57 217.86L307.05 222.88L301.56 168.81Z" id="a39J6b7oTS"></path><path d="M362.29 125.36C360.77 126.55 348.63 136.08 347.11 137.27C350.73 139.72 355.63 139.72 359.14 136.92C362.76 134.12 363.93 129.33 362.29 125.36Z" id="f3T1RRjjCR"></path><path d="M375.26 178.97C375.26 178.97 375.26 178.97 375.26 178.97C375.26 225.71 375.26 251.67 375.26 256.87C375.26 256.87 375.26 256.87 375.26 256.87C361.66 256.87 354.11 256.87 352.6 256.87C352.6 256.87 352.6 256.87 352.6 256.87C352.6 210.13 352.6 184.16 352.6 178.97C352.6 178.97 352.6 178.97 352.6 178.97C366.19 178.97 373.74 178.97 375.26 178.97Z" id="b2SN6LPeq"></path><path d="M361.01 261.66C355.2 261.66 350.5 266.36 350.5 272.17C350.5 277.97 355.2 282.68 361.01 282.68C366.81 282.68 371.52 277.97 371.52 272.17C371.52 266.36 366.81 261.66 361.01 261.66Z" id="l1GVhnI6hW"></path><path d="M373.04 256.87C373.04 256.87 373.04 256.87 373.04 256.87C373.04 262.96 373.04 266.35 373.04 267.03C373.04 267.03 373.04 267.03 373.04 267.03C360.7 267.03 353.85 267.03 352.48 267.03C352.48 267.03 352.48 267.03 352.48 267.03C352.48 260.93 352.48 257.54 352.48 256.87C352.48 256.87 352.48 256.87 352.48 256.87C364.81 256.87 371.67 256.87 373.04 256.87Z" id="bLi8GsJQH"></path><path d="M365.56 260.95C364.46 260.95 363.58 261.84 363.58 262.94C363.58 264.04 364.46 264.93 365.56 264.93C366.66 264.93 367.55 264.04 367.55 262.94C367.55 261.84 366.66 260.95 365.56 260.95Z" id="axQL4qQEn"></path><path d="M308.33 159.93C308.33 159.93 295.14 158.53 280.65 157.24C263.6 164.48 251.57 181.42 251.57 201.16C251.57 201.72 251.57 204.57 251.57 209.68L314.41 169.16C310.76 163.62 308.74 160.54 308.33 159.93Z" id="bLri8Jfai"></path><path d="M306.81 163.08C306.81 163.08 320.01 161.68 334.49 160.4C351.55 167.64 382.15 228.84 382.15 248.57C382.09 251.32 381.82 265.07 381.33 289.8L304.95 169.39C306.07 165.6 306.69 163.5 306.81 163.08Z" id="fLxnaXJge"></path><path d="M308.33 154.56C308.33 154.56 295.14 153.15 280.65 151.87C263.6 159.11 251.57 176.05 251.57 195.78C251.57 196.12 251.57 197.79 251.57 200.81L319.31 165.07C312.72 158.76 309.06 155.26 308.33 154.56Z" id="a24KHgtpem"></path><path d="M381.91 195.55C381.91 169.16 360.54 147.78 334.14 147.78C332.43 147.78 318.69 147.78 316.98 147.78C304.71 152.34 296.42 155.49 296.42 155.49C302.12 163.53 330.62 203.75 381.91 276.14C381.91 227.79 381.91 200.92 381.91 195.55Z" id="f2JNjoJrbD"></path><path d="M381.8 195.32C381.8 168.92 360.42 147.55 334.03 147.55C332.31 147.55 318.58 147.55 316.86 147.55C304.6 152.1 291.16 157.83 291.16 157.83C297.21 162.31 327.42 184.74 381.8 225.1C381.8 207.23 381.8 197.3 381.8 195.32Z" id="b2IwnlICWV"></path><path d="M368.36 162.38C359.6 153.39 347.34 147.78 333.79 147.78C330.3 147.78 302.36 147.78 298.87 147.78C285.32 147.78 273.06 153.39 264.3 162.38C285.11 162.38 357.96 162.38 368.36 162.38Z" id="bso6sioHR"></path><path d="M358.79 171.72C358.79 171.72 358.79 171.72 358.79 171.72C358.79 179.43 358.79 183.72 358.79 184.57C358.79 184.57 358.79 184.57 358.79 184.57C357.46 184.57 356.72 184.57 356.57 184.57C356.57 184.57 356.57 184.57 356.57 184.57C356.57 176.86 356.57 172.58 356.57 171.72C356.57 171.72 356.57 171.72 356.57 171.72C357.9 171.72 358.64 171.72 358.79 171.72Z" id="a451CFtejk"></path><path d="M346.06 162.5C346.06 162.5 346.06 162.5 346.06 162.5C346.06 165.86 346.06 167.73 346.06 168.1C346.06 168.1 346.06 168.1 346.06 168.1C344.73 168.1 343.99 168.1 343.84 168.1C343.84 168.1 343.84 168.1 343.84 168.1C343.84 164.74 343.84 162.87 343.84 162.5C343.84 162.5 343.84 162.5 343.84 162.5C345.17 162.5 345.91 162.5 346.06 162.5Z" id="b60Vw1ePdV"></path><path d="M369.3 193.92C369.3 193.92 369.3 193.92 369.3 193.92C369.3 201.62 369.3 205.91 369.3 206.76C369.3 206.76 369.3 206.76 369.3 206.76C367.97 206.76 367.23 206.76 367.08 206.76C367.08 206.76 367.08 206.76 367.08 206.76C367.08 199.05 367.08 194.77 367.08 193.92C367.08 193.92 367.08 193.92 367.08 193.92C368.41 193.92 369.15 193.92 369.3 193.92Z" id="c2z6x8K9Gz"></path><path d="M343.84 196.95L343.84 193.92L346.06 193.92L346.06 198.59L343.84 196.95Z" id="a1DXVvRUba"></path><path d="M369.42 162.5C369.42 162.5 369.42 162.5 369.42 162.5C369.42 165.86 369.42 167.73 369.42 168.1C369.42 168.1 369.42 168.1 369.42 168.1C368.08 168.1 367.34 168.1 367.2 168.1C367.2 168.1 367.2 168.1 367.2 168.1C367.2 164.74 367.2 162.87 367.2 162.5C367.2 162.5 367.2 162.5 367.2 162.5C368.53 162.5 369.27 162.5 369.42 162.5Z" id="b4O9WSiPE2"></path><path d="M322.82 162.5C322.82 162.5 322.82 162.5 322.82 162.5C322.82 165.86 322.82 167.73 322.82 168.1C322.82 168.1 322.82 168.1 322.82 168.1C321.48 168.1 320.74 168.1 320.6 168.1C320.6 168.1 320.6 168.1 320.6 168.1C320.6 164.74 320.6 162.87 320.6 162.5C320.6 162.5 320.6 162.5 320.6 162.5C321.93 162.5 322.67 162.5 322.82 162.5Z" id="h3x7Dczel7"></path><path d="M335.55 171.72C335.55 171.72 335.55 171.72 335.55 171.72C335.55 179.43 335.55 183.72 335.55 184.57C335.55 184.57 335.55 184.57 335.55 184.57C334.21 184.57 333.47 184.57 333.33 184.57C333.33 184.57 333.33 184.57 333.33 184.57C333.33 176.86 333.33 172.58 333.33 171.72C333.33 171.72 333.33 171.72 333.33 171.72C334.66 171.72 335.4 171.72 335.55 171.72Z" id="a3nTJrVEN"></path><path d="M255.08 299.61C255.08 299.61 255.08 299.61 255.08 299.61C255.08 307.53 255.08 311.93 255.08 312.81C255.08 312.81 255.08 312.81 255.08 312.81C253.11 312.81 252.02 312.81 251.81 312.81C251.81 312.81 251.81 312.81 251.81 312.81C251.81 304.89 251.81 300.49 251.81 299.61C251.81 299.61 251.81 299.61 251.81 299.61C253.77 299.61 254.86 299.61 255.08 299.61Z" id="c2f5g9gY6C"></path><path d="M266.75 299.61C266.75 299.61 266.75 299.61 266.75 299.61C266.75 307.53 266.75 311.93 266.75 312.81C266.75 312.81 266.75 312.81 266.75 312.81C264.86 312.81 263.81 312.81 263.6 312.81C263.6 312.81 263.6 312.81 263.6 312.81C263.6 304.89 263.6 300.49 263.6 299.61C263.6 299.61 263.6 299.61 263.6 299.61C265.49 299.61 266.54 299.61 266.75 299.61Z" id="a1VbZoN7cs"></path><path d="M278.32 299.61C278.32 299.61 278.32 299.61 278.32 299.61C278.32 307.53 278.32 311.93 278.32 312.81C278.32 312.81 278.32 312.81 278.32 312.81C276.43 312.81 275.37 312.81 275.16 312.81C275.16 312.81 275.16 312.81 275.16 312.81C275.16 304.89 275.16 300.49 275.16 299.61C275.16 299.61 275.16 299.61 275.16 299.61C277.06 299.61 278.11 299.61 278.32 299.61Z" id="e2DCfJXZ8C"></path><path d="M358.9 299.61C358.9 299.61 358.9 299.61 358.9 299.61C358.9 307.53 358.9 311.93 358.9 312.81C358.9 312.81 358.9 312.81 358.9 312.81C357.01 312.81 355.96 312.81 355.75 312.81C355.75 312.81 355.75 312.81 355.75 312.81C355.75 304.89 355.75 300.49 355.75 299.61C355.75 299.61 355.75 299.61 355.75 299.61C357.64 299.61 358.69 299.61 358.9 299.61Z" id="a8icbDFW8"></path><path d="M370.47 299.61C370.47 299.61 370.47 299.61 370.47 299.61C370.47 307.53 370.47 311.93 370.47 312.81C370.47 312.81 370.47 312.81 370.47 312.81C368.57 312.81 367.52 312.81 367.31 312.81C367.31 312.81 367.31 312.81 367.31 312.81C367.31 304.89 367.31 300.49 367.31 299.61C367.31 299.61 367.31 299.61 367.31 299.61C369.21 299.61 370.26 299.61 370.47 299.61Z" id="ajUPPHyzN"></path><path d="M382.03 299.61C382.03 299.61 382.03 299.61 382.03 299.61C382.03 307.53 382.03 311.93 382.03 312.81C382.03 312.81 382.03 312.81 382.03 312.81C380.14 312.81 379.09 312.81 378.88 312.81C378.88 312.81 378.88 312.81 378.88 312.81C378.88 304.89 378.88 300.49 378.88 299.61C378.88 299.61 378.88 299.61 378.88 299.61C380.77 299.61 381.82 299.61 382.03 299.61Z" id="d7stBi76XT"></path><path d="M321.3 224.28C319.68 224.28 318.38 225.59 318.38 227.2C318.38 228.81 319.68 230.12 321.3 230.12C322.91 230.12 324.22 228.81 324.22 227.2C324.22 225.59 322.91 224.28 321.3 224.28Z" id="a5jetF10I4"></path><path d="M308.68 206.88C306.43 206.88 304.6 208.71 304.6 210.97C304.6 213.22 306.43 215.05 308.68 215.05C310.94 215.05 312.77 213.22 312.77 210.97C312.77 208.71 310.94 206.88 308.68 206.88Z" id="a1KS80NAur"></path><path d="M311.49 217.39C310.07 217.39 308.92 218.54 308.92 219.96C308.92 221.38 310.07 222.53 311.49 222.53C312.91 222.53 314.06 221.38 314.06 219.96C314.06 218.54 312.91 217.39 311.49 217.39Z" id="a1s6hVspDa"></path><path d="M307.98 217.74C306.31 217.74 304.95 219.1 304.95 220.78C304.95 222.45 306.31 223.81 307.98 223.81C309.66 223.81 311.02 222.45 311.02 220.78C311.02 219.1 309.66 217.74 307.98 217.74Z" id="b7Zrx3PIk9"></path><path d="M314.64 215.41C312.96 215.41 311.6 216.76 311.6 218.44C311.6 220.12 312.96 221.48 314.64 221.48C316.32 221.48 317.68 220.12 317.68 218.44C317.68 216.76 316.32 215.41 314.64 215.41Z" id="alqvxU5a7"></path><path d="M305.65 198.47C304.36 198.47 303.31 199.52 303.31 200.81C303.31 202.1 304.36 203.14 305.65 203.14C306.94 203.14 307.98 202.1 307.98 200.81C307.98 199.52 306.94 198.47 305.65 198.47Z" id="c11gHNKr7t"></path><path d="M304.83 182.47C303.54 182.47 302.49 183.52 302.49 184.81C302.49 186.1 303.54 187.14 304.83 187.14C306.12 187.14 307.16 186.1 307.16 184.81C307.16 183.52 306.12 182.47 304.83 182.47Z" id="e69saTDha"></path><path d="M304.6 186.09C303.31 186.09 302.26 187.14 302.26 188.43C302.26 189.72 303.31 190.76 304.6 190.76C305.89 190.76 306.93 189.72 306.93 188.43C306.93 187.14 305.89 186.09 304.6 186.09Z" id="ba5qMFUoV"></path><path d="M306.23 195.43C304.94 195.43 303.89 196.48 303.89 197.77C303.89 199.06 304.94 200.11 306.23 200.11C307.52 200.11 308.57 199.06 308.57 197.77C308.57 196.48 307.52 195.43 306.23 195.43Z" id="a3R5RtLDpz"></path><path d="M309.27 211.78C307.14 211.78 305.41 213.51 305.41 215.64C305.41 217.77 307.14 219.49 309.27 219.49C311.4 219.49 313.12 217.77 313.12 215.64C313.12 213.51 311.4 211.78 309.27 211.78Z" id="ekoAllsC7"></path><path d="M273.3 260.95C272.2 260.95 271.31 261.84 271.31 262.94C271.31 264.04 272.2 264.93 273.3 264.93C274.39 264.93 275.28 264.04 275.28 262.94C275.28 261.84 274.39 260.95 273.3 260.95Z" id="d1MWsiN177"></path><path d="M320.83 269.01C320.83 269.01 320.83 269.01 320.83 269.01C320.83 270.27 320.83 270.98 320.83 271.12C320.83 271.12 320.83 271.12 320.83 271.12C318.03 271.12 316.47 271.12 316.16 271.12C316.16 271.12 316.16 271.12 316.16 271.12C316.16 269.85 316.16 269.15 316.16 269.01C316.16 269.01 316.16 269.01 316.16 269.01C318.96 269.01 320.52 269.01 320.83 269.01Z" id="bc7MVzsH"></path><path d="M287.89 292.61C287.89 292.61 287.89 292.61 287.89 292.61C287.89 318.18 287.89 332.39 287.89 335.23C287.89 335.23 287.89 335.23 287.89 335.23C285.09 335.23 283.53 335.23 283.22 335.23C283.22 335.23 283.22 335.23 283.22 335.23C283.22 309.66 283.22 295.45 283.22 292.61C283.22 292.61 283.22 292.61 283.22 292.61C286.03 292.61 287.58 292.61 287.89 292.61Z" id="dHDq4SNIB"></path><path d="M289.53 270.18C289.53 270.18 289.53 270.18 289.53 270.18C289.53 279.43 289.53 284.57 289.53 285.6C289.53 285.6 289.53 285.6 289.53 285.6C285.25 285.6 282.88 285.6 282.4 285.6C282.4 285.6 282.4 285.6 282.4 285.6C282.4 276.35 282.4 271.21 282.4 270.18C282.4 270.18 282.4 270.18 282.4 270.18C286.68 270.18 289.05 270.18 289.53 270.18Z" id="aez5Y6pjw"></path><path d="M291.28 279.17C291.28 279.17 291.28 279.17 291.28 279.17C291.28 302.3 291.28 315.15 291.28 317.72C291.28 317.72 291.28 317.72 291.28 317.72C284.41 317.72 280.6 317.72 279.84 317.72C279.84 317.72 279.84 317.72 279.84 317.72C279.84 294.59 279.84 281.74 279.84 279.17C279.84 279.17 279.84 279.17 279.84 279.17C286.7 279.17 290.52 279.17 291.28 279.17Z" id="b5YPXAeHvq"></path><path d="M351.08 118.58L352.36 122.67L331.11 122.32L351.08 118.58Z" id="b28UPQ9m4o"></path><path d="M130.69 278.94C120.37 278.94 112 287.31 112 297.63C112 307.95 120.37 316.31 130.69 316.31C141.01 316.31 149.38 307.95 149.38 297.63C149.38 287.31 141.01 278.94 130.69 278.94Z" id="b4Oxsv1cO3"></path><path d="M130.34 320.87C130.34 318.71 130.34 301.42 130.34 299.26C130.34 298.56 130.81 298.09 131.51 298.09C132.21 298.09 132.68 298.56 132.68 299.26C132.68 301.42 132.68 318.71 132.68 320.87C132.68 321.45 132.09 322.04 131.51 322.04C130.81 322.04 130.34 321.57 130.34 320.87Z" id="acjO7Ryo5"></path><path d="M131.04 309.19C130.45 308.56 125.68 303.51 125.09 302.88C124.62 302.42 124.62 301.72 125.09 301.25C125.55 300.78 126.25 300.78 126.72 301.25C127.32 301.88 132.08 306.92 132.68 307.55C133.14 308.02 133.14 308.72 132.68 309.19C132.44 309.42 132.09 309.54 131.86 309.54C131.51 309.54 131.28 309.42 131.04 309.19Z" id="a1ueFuyNCU"></path><path d="M436.1 310.36C436.1 312.74 428.26 314.68 418.59 314.68C408.91 314.68 401.07 312.74 401.07 310.36C401.07 307.97 408.91 306.04 418.59 306.04C428.26 306.04 436.1 307.97 436.1 310.36Z" id="aVIW3jOpv"></path><path d="M418 266.68C407.68 266.68 399.31 275.04 399.31 285.36C399.31 295.68 407.68 304.05 418 304.05C428.32 304.05 436.69 295.68 436.69 285.36C436.69 275.04 428.32 266.68 418 266.68Z" id="bviLlIJjy"></path><path d="M417.65 308.61C417.65 305.74 417.65 282.85 417.65 279.99C417.65 279.29 418.12 278.82 418.82 278.82C419.52 278.82 419.99 279.29 419.99 279.99C419.99 282.85 419.99 305.74 419.99 308.61C419.99 309.19 419.4 309.77 418.82 309.77C418.12 309.77 417.65 309.31 417.65 308.61Z" id="dnFYC4g59"></path><path d="M417.53 295.99C417.02 295.46 412.91 291.16 412.4 290.62C411.93 290.15 411.93 289.45 412.4 288.98C412.86 288.52 413.56 288.52 414.03 288.98C414.54 289.52 418.66 293.82 419.17 294.36C419.64 294.82 419.64 295.53 419.17 295.99C418.94 296.23 418.59 296.34 418.35 296.34C418 296.34 417.77 296.23 417.53 295.99Z" id="a2731HZVaB"></path><path d="M418.35 292.14C417.88 291.79 417.77 290.97 418.12 290.5C418.64 289.84 422.85 284.51 423.37 283.85C423.72 283.38 424.54 283.26 425.01 283.61C425.48 283.96 425.59 284.78 425.24 285.25C424.72 285.91 420.51 291.24 419.99 291.9C419.75 292.14 419.4 292.37 419.05 292.37C418.82 292.37 418.59 292.25 418.35 292.14Z" id="c6rIGEIMB"></path><path d="M201.35 304.63C193.29 304.63 186.75 311.17 186.75 319.23C186.75 327.3 193.29 333.83 201.35 333.83C209.41 333.83 215.95 327.3 215.95 319.23C215.95 311.17 209.41 304.63 201.35 304.63Z" id="b5fDgU5MR0"></path><path d="M213.03 305.8C209.48 305.8 206.61 308.68 206.61 312.23C206.61 315.77 209.48 318.65 213.03 318.65C216.58 318.65 219.45 315.77 219.45 312.23C219.45 308.68 216.58 305.8 213.03 305.8Z" id="b1Yrvut9il"></path><path d="M200.77 337.34C200.77 336.08 200.77 325.98 200.77 324.72C200.77 324.02 201.23 323.56 201.93 323.56C202.64 323.56 203.1 324.02 203.1 324.72C203.1 325.98 203.1 336.08 203.1 337.34C203.1 338.04 202.64 338.5 201.93 338.5C201.23 338.5 200.77 338.04 200.77 337.34Z" id="apfaUHra2"></path><path d="M354.22 83.94L272.08 97.06" id="cgNBkZ0im"></path><path d="M276.81 90.52C264.15 90.05 260.86 96.68 249.02 104.6C241.13 109.89 232.75 106.48 223.88 94.35" id="a6bfSVkDUb"></path><path d="M276.34 99.87C266.23 107.85 267.69 115.14 263.31 129.09C260.4 138.39 251.83 141.26 237.61 137.71" id="e21wQDZKyi"></path><path d="M311.89 96.16C276.73 93.13 248.7 76.66 249.4 69.54C249.99 62.29 278.95 67.08 314.11 70C349.26 72.92 377.29 73.04 376.59 80.28C376.01 87.52 347.04 99.08 311.89 96.16Z" id="f4r5QWgjuE"></path><path d="M350.32 57.24C350.32 57.24 350.32 57.24 350.32 57.24C348.89 74 348.1 83.31 347.94 85.17C347.94 85.17 347.94 85.17 347.94 85.17C306.33 81.63 283.21 79.66 278.58 79.27C278.58 79.27 278.58 79.27 278.58 79.27C280.01 62.51 280.8 53.2 280.96 51.34C280.96 51.34 280.96 51.34 280.96 51.34C322.58 54.88 345.69 56.85 350.32 57.24Z" id="bpo9iGdPG"></path><path d="M279.18 72.57C286.54 70 299.62 68.95 314.34 70.12C329.05 71.4 341.79 74.67 348.56 78.41C348.66 77.14 349.51 66.95 349.61 65.68C342.25 68.25 329.17 69.42 314.46 68.13C299.74 66.97 287.01 63.7 280.24 59.96C280.03 62.48 279.29 71.31 279.18 72.57Z" id="b1oHYKBouJ"></path><path d="M279.07 72.57C278.97 73.72 278.23 82.87 278.13 84.02C284.91 87.87 297.64 91.03 312.35 92.31C327.07 93.59 340.15 92.54 347.51 89.86C347.6 88.71 348.35 79.56 348.44 78.41C341.67 74.67 328.94 71.4 314.22 70.12C299.51 68.83 286.43 69.89 279.07 72.57Z" id="aCr1HxdUf"></path><path d="M279.3 74.67C287.48 78.29 299.86 80.98 313.4 82.15C326.6 83.32 338.98 82.73 347.62 80.63C347.62 80.62 347.62 80.54 347.62 80.4C347.91 77.24 348.06 75.49 348.09 75.14C340.15 77.36 327.3 78.06 313.76 76.89C300.09 75.73 287.24 72.81 279.89 69.19" id="bhiPQHqt"></path><path d="M347.51 58.13C347.19 61.79 332.61 63.54 314.94 62.04C297.26 60.53 283.19 56.34 283.5 52.68C283.81 49.02 298.39 47.27 316.07 48.77C333.74 50.27 347.82 54.46 347.51 58.13Z" id="e2KCUw3zoQ"></path><path d="M349.61 65.8C349.7 64.65 350.45 55.5 350.54 54.35C343.77 50.5 331.04 47.23 316.32 46.06C301.61 44.78 288.53 45.83 281.17 48.51C281.08 49.66 280.33 58.81 280.24 59.96C287.01 63.7 299.74 66.97 314.46 68.25C329.17 69.54 342.25 68.48 349.61 65.8Z" id="c2HkAfef95"></path><path d="M279.65 72.81C287.13 76.43 299.86 79.46 313.52 80.51C326.95 81.68 339.8 80.98 347.86 78.76C347.94 77.85 348.59 70.56 348.68 69.65C341.2 66.03 328.7 63.23 315.16 62.06C301.38 61.01 288.29 61.71 280.35 64.05C280.21 65.8 279.72 71.93 279.65 72.81Z" id="bWPc9ZshK"></path><path d="M280.35 64.05C280.28 64.92 279.72 71.93 279.65 72.81C287.13 76.43 299.86 79.46 313.52 80.51C327.3 81.68 340.38 80.98 348.33 78.53C348.4 77.65 348.96 70.64 349.03 69.77C341.55 66.27 328.82 63.35 315.04 62.18C301.38 61.01 288.29 61.71 280.35 64.05Z" id="ezRZk5ySG"></path></defs><g><g><g><use xlink:href="#a3pUQpsMc" opacity="1" fill="#e4cfa5" fill-opacity="1"></use><g><use xlink:href="#a3pUQpsMc" opacity="1" fill-opacity="0" stroke="#000000" stroke-width="1" stroke-opacity="0"></use></g></g><g><use xlink:href="#b1GzKD6bME" opacity="1" fill="#cfbe98" fill-opacity="1"></use><g><use xlink:href="#b1GzKD6bME" opacity="1" fill-opacity="0" stroke="#000000" stroke-width="1" stroke-opacity="0"></use></g></g><g><use xlink:href="#adI1ne7Et" opacity="1" fill="#cfbe98" fill-opacity="1"></use><g><use xlink:href="#adI1ne7Et" opacity="1" fill-opacity="0" stroke="#000000" stroke-width="1" stroke-opacity="0"></use></g></g><g><use xlink:href="#d7Q82FV1yW" opacity="1" fill="#cfbe98" fill-opacity="1"></use><g><use xlink:href="#d7Q82FV1yW" opacity="1" fill-opacity="0" stroke="#000000" stroke-width="1" stroke-opacity="0"></use></g></g><g><use xlink:href="#d7mRPR1sGv" opacity="1" fill="#cfbe98" fill-opacity="1"></use><g><use xlink:href="#d7mRPR1sGv" opacity="1" fill-opacity="0" stroke="#000000" stroke-width="1" stroke-opacity="0"></use></g></g><g><use xlink:href="#a1v0tGyuT8" opacity="1" fill="#cfbe98" fill-opacity="1"></use><g><use xlink:href="#a1v0tGyuT8" opacity="1" fill-opacity="0" stroke="#000000" stroke-width="1" stroke-opacity="0"></use></g></g><g><use xlink:href="#a13hfrcaNL" opacity="1" fill="#cfbe98" fill-opacity="1"></use><g><use xlink:href="#a13hfrcaNL" opacity="1" fill-opacity="0" stroke="#000000" stroke-width="1" stroke-opacity="0"></use></g></g><g><use xlink:href="#a2pjzcQMvj" opacity="1" fill="#ffffff" fill-opacity="1"></use><g><use xlink:href="#a2pjzcQMvj" opacity="1" fill-opacity="0" stroke="#000000" stroke-width="1" stroke-opacity="0"></use></g></g><g><use xlink:href="#a1m3vKHehT" opacity="1" fill="#ffffff" fill-opacity="1"></use><g><use xlink:href="#a1m3vKHehT" opacity="1" fill-opacity="0" stroke="#000000" stroke-width="1" stroke-opacity="0"></use></g></g><g><use xlink:href="#c6tg69syi6" opacity="1" fill="#ffffff" fill-opacity="1"></use><g><use xlink:href="#c6tg69syi6" opacity="1" fill-opacity="0" stroke="#000000" stroke-width="1" stroke-opacity="0"></use></g></g><g><use xlink:href="#av4iUN6In" opacity="1" fill="#ffffff" fill-opacity="1"></use><g><use xlink:href="#av4iUN6In" opacity="1" fill-opacity="0" stroke="#000000" stroke-width="1" stroke-opacity="0"></use></g></g><g><use xlink:href="#g6ztbR07q2" opacity="1" fill="#4e4c34" fill-opacity="1"></use><g><use xlink:href="#g6ztbR07q2" opacity="1" fill-opacity="0" stroke="#000000" stroke-width="1" stroke-opacity="0"></use></g></g><g><use xlink:href="#a2t7vpbMHX" opacity="1" fill="#686e53" fill-opacity="1"></use><g><use xlink:href="#a2t7vpbMHX" opacity="1" fill-opacity="0" stroke="#000000" stroke-width="1" stroke-opacity="0"></use></g></g><g><use xlink:href="#e8M9H81Sm" opacity="1" fill="#31331a" fill-opacity="1"></use><g><use xlink:href="#e8M9H81Sm" opacity="1" fill-opacity="0" stroke="#000000" stroke-width="1" stroke-opacity="0"></use></g></g><g><use xlink:href="#a3FmXLhQ9n" opacity="1" fill="#142013" fill-opacity="1"></use><g><use xlink:href="#a3FmXLhQ9n" opacity="1" fill-opacity="0" stroke="#000000" stroke-width="1" stroke-opacity="0"></use></g></g><g><use xlink:href="#a5PAcbXJAO" opacity="1" fill="#f2dcc0" fill-opacity="1"></use><g><use xlink:href="#a5PAcbXJAO" opacity="1" fill-opacity="0" stroke="#000000" stroke-width="1" stroke-opacity="0"></use></g></g><g><use xlink:href="#aFv2AIVT8" opacity="1" fill="#e8ceaf" fill-opacity="1"></use><g><use xlink:href="#aFv2AIVT8" opacity="1" fill-opacity="0" stroke="#000000" stroke-width="1" stroke-opacity="0"></use></g></g><g><use xlink:href="#a1TKBefbjv" opacity="1" fill="#f1dbbf" fill-opacity="1"></use><g><use xlink:href="#a1TKBefbjv" opacity="1" fill-opacity="0" stroke="#000000" stroke-width="1" stroke-opacity="0"></use></g></g><g><use xlink:href="#hRb3EjHYA" opacity="1" fill="#5c5f58" fill-opacity="1"></use><g><use xlink:href="#hRb3EjHYA" opacity="1" fill-opacity="0" stroke="#000000" stroke-width="1" stroke-opacity="0"></use></g></g><g><use xlink:href="#d5lwaXcpwb" opacity="1" fill="#5c5f58" fill-opacity="1"></use><g><use xlink:href="#d5lwaXcpwb" opacity="1" fill-opacity="0" stroke="#000000" stroke-width="1" stroke-opacity="0"></use></g></g><g><use xlink:href="#d1ag4boLYU" opacity="1" fill="#f9e9b3" fill-opacity="1"></use><g><use xlink:href="#d1ag4boLYU" opacity="1" fill-opacity="0" stroke="#000000" stroke-width="1" stroke-opacity="0"></use></g></g><g><use xlink:href="#cV659WyT" opacity="1" fill="#e5d29e" fill-opacity="1"></use><g><use xlink:href="#cV659WyT" opacity="1" fill-opacity="0" stroke="#000000" stroke-width="1" stroke-opacity="0"></use></g></g><g><use xlink:href="#b2LIQXzXx" opacity="1" fill="#e5d29e" fill-opacity="1"></use><g><use xlink:href="#b2LIQXzXx" opacity="1" fill-opacity="0" stroke="#000000" stroke-width="1" stroke-opacity="0"></use></g></g><g><use xlink:href="#bejswBfj" opacity="1" fill="#e5d29e" fill-opacity="1"></use><g><use xlink:href="#bejswBfj" opacity="1" fill-opacity="0" stroke="#000000" stroke-width="1" stroke-opacity="0"></use></g></g><g><use xlink:href="#b1D44RPaiT" opacity="1" fill="#ffffff" fill-opacity="1"></use><g><use xlink:href="#b1D44RPaiT" opacity="1" fill-opacity="0" stroke="#000000" stroke-width="1" stroke-opacity="0"></use></g></g><g><use xlink:href="#blqNmee5A" opacity="1" fill="#e8ceaf" fill-opacity="1"></use><g><use xlink:href="#blqNmee5A" opacity="1" fill-opacity="0" stroke="#000000" stroke-width="1" stroke-opacity="0"></use></g></g><g><use xlink:href="#d1yOh1flpe" opacity="1" fill="#ffffff" fill-opacity="1"></use><g><use xlink:href="#d1yOh1flpe" opacity="1" fill-opacity="0" stroke="#000000" stroke-width="1" stroke-opacity="0"></use></g></g><g><use xlink:href="#l5TPGecfPL" opacity="1" fill="#ffffff" fill-opacity="1"></use><g><use xlink:href="#l5TPGecfPL" opacity="1" fill-opacity="0" stroke="#000000" stroke-width="1" stroke-opacity="0"></use></g></g><g><use xlink:href="#a3IfAc1s9" opacity="1" fill="#142013" fill-opacity="1"></use><g><use xlink:href="#a3IfAc1s9" opacity="1" fill-opacity="0" stroke="#000000" stroke-width="1" stroke-opacity="0"></use></g></g><g><use xlink:href="#b1nAgplimO" opacity="1" fill="#b5d9e3" fill-opacity="1"></use><g><use xlink:href="#b1nAgplimO" opacity="1" fill-opacity="0" stroke="#000000" stroke-width="1" stroke-opacity="0"></use></g></g><g><use xlink:href="#d13kaDLGWk" opacity="1" fill="#142013" fill-opacity="1"></use><g><use xlink:href="#d13kaDLGWk" opacity="1" fill-opacity="0" stroke="#000000" stroke-width="1" stroke-opacity="0"></use></g></g><g><use xlink:href="#g1zJSsT1PJ" opacity="1" fill="#a4cdd9" fill-opacity="1"></use><g><use xlink:href="#g1zJSsT1PJ" opacity="1" fill-opacity="0" stroke="#000000" stroke-width="1" stroke-opacity="0"></use></g></g><g><use xlink:href="#a1rBSBQKiZ" opacity="1" fill="#35271e" fill-opacity="1"></use><g><use xlink:href="#a1rBSBQKiZ" opacity="1" fill-opacity="0" stroke="#000000" stroke-width="1" stroke-opacity="0"></use></g></g><g><use xlink:href="#b1fAOapt8K" opacity="1" fill="#291a1f" fill-opacity="1"></use><g><use xlink:href="#b1fAOapt8K" opacity="1" fill-opacity="0" stroke="#000000" stroke-width="1" stroke-opacity="0"></use></g></g><g><use xlink:href="#hn1Mi1QY4" opacity="1" fill="#35271e" fill-opacity="1"></use><g><use xlink:href="#hn1Mi1QY4" opacity="1" fill-opacity="0" stroke="#000000" stroke-width="1" stroke-opacity="0"></use></g></g><g><use xlink:href="#a1hwcmHYKS" opacity="1" fill="#291a1f" fill-opacity="1"></use><g><use xlink:href="#a1hwcmHYKS" opacity="1" fill-opacity="0" stroke="#000000" stroke-width="1" stroke-opacity="0"></use></g></g><g><use xlink:href="#iCK4gtXME" opacity="1" fill="#8b5335" fill-opacity="1"></use><g><use xlink:href="#iCK4gtXME" opacity="1" fill-opacity="0" stroke="#000000" stroke-width="1" stroke-opacity="0"></use></g></g><g><use xlink:href="#b20fRqMzi4" opacity="1" fill="#8b5335" fill-opacity="1"></use><g><use xlink:href="#b20fRqMzi4" opacity="1" fill-opacity="0" stroke="#000000" stroke-width="1" stroke-opacity="0"></use></g></g><g><use xlink:href="#c1QVPgZSLe" opacity="1" fill="#8b5335" fill-opacity="1"></use><g><use xlink:href="#c1QVPgZSLe" opacity="1" fill-opacity="0" stroke="#000000" stroke-width="1" stroke-opacity="0"></use></g></g><g><use xlink:href="#f5FeOkYwQy" opacity="1" fill="#291a1f" fill-opacity="1"></use><g><use xlink:href="#f5FeOkYwQy" opacity="1" fill-opacity="0" stroke="#000000" stroke-width="1" stroke-opacity="0"></use></g></g><g><use xlink:href="#c1qhVlncg0" opacity="1" fill="#768b8f" fill-opacity="1"></use><g><use xlink:href="#c1qhVlncg0" opacity="1" fill-opacity="0" stroke="#000000" stroke-width="1" stroke-opacity="0"></use></g></g><g><use xlink:href="#a4k6ZF2Oeo" opacity="1" fill="#e4cfa5" fill-opacity="1"></use><g><use xlink:href="#a4k6ZF2Oeo" opacity="1" fill-opacity="0" stroke="#000000" stroke-width="1" stroke-opacity="0"></use></g></g><g><use xlink:href="#n2eXkjO4fC" opacity="1" fill="#dac39d" fill-opacity="1"></use><g><use xlink:href="#n2eXkjO4fC" opacity="1" fill-opacity="0" stroke="#000000" stroke-width="1" stroke-opacity="0"></use></g></g><g><use xlink:href="#a39J6b7oTS" opacity="1" fill="#f4e8c8" fill-opacity="1"></use><g><use xlink:href="#a39J6b7oTS" opacity="1" fill-opacity="0" stroke="#000000" stroke-width="1" stroke-opacity="0"></use></g></g><g><use xlink:href="#f3T1RRjjCR" opacity="1" fill="#142013" fill-opacity="1"></use><g><use xlink:href="#f3T1RRjjCR" opacity="1" fill-opacity="0" stroke="#000000" stroke-width="1" stroke-opacity="0"></use></g></g><g><use xlink:href="#b2SN6LPeq" opacity="1" fill="#a4cdd9" fill-opacity="1"></use><g><use xlink:href="#b2SN6LPeq" opacity="1" fill-opacity="0" stroke="#000000" stroke-width="1" stroke-opacity="0"></use></g></g><g><use xlink:href="#l1GVhnI6hW" opacity="1" fill="#e8ceaf" fill-opacity="1"></use><g><use xlink:href="#l1GVhnI6hW" opacity="1" fill-opacity="0" stroke="#000000" stroke-width="1" stroke-opacity="0"></use></g></g><g><use xlink:href="#bLi8GsJQH" opacity="1" fill="#b5d9e3" fill-opacity="1"></use><g><use xlink:href="#bLi8GsJQH" opacity="1" fill-opacity="0" stroke="#000000" stroke-width="1" stroke-opacity="0"></use></g></g><g><use xlink:href="#axQL4qQEn" opacity="1" fill="#ffffff" fill-opacity="1"></use><g><use xlink:href="#axQL4qQEn" opacity="1" fill-opacity="0" stroke="#000000" stroke-width="1" stroke-opacity="0"></use></g></g><g><use xlink:href="#bLri8Jfai" opacity="1" fill="#4e4d32" fill-opacity="1"></use><g><use xlink:href="#bLri8Jfai" opacity="1" fill-opacity="0" stroke="#000000" stroke-width="1" stroke-opacity="0"></use></g></g><g><use xlink:href="#fLxnaXJge" opacity="1" fill="#4e4d32" fill-opacity="1"></use><g><use xlink:href="#fLxnaXJge" opacity="1" fill-opacity="0" stroke="#000000" stroke-width="1" stroke-opacity="0"></use></g></g><g><use xlink:href="#a24KHgtpem" opacity="1" fill="#4e4d32" fill-opacity="1"></use><g><use xlink:href="#a24KHgtpem" opacity="1" fill-opacity="0" stroke="#000000" stroke-width="1" stroke-opacity="0"></use></g></g><g><use xlink:href="#f2JNjoJrbD" opacity="1" fill="#3e3d1f" fill-opacity="1"></use><g><use xlink:href="#f2JNjoJrbD" opacity="1" fill-opacity="0" stroke="#000000" stroke-width="1" stroke-opacity="0"></use></g></g><g><use xlink:href="#b2IwnlICWV" opacity="1" fill="#595b43" fill-opacity="1"></use><g><use xlink:href="#b2IwnlICWV" opacity="1" fill-opacity="0" stroke="#000000" stroke-width="1" stroke-opacity="0"></use></g></g><g><use xlink:href="#bso6sioHR" opacity="1" fill="#686e53" fill-opacity="1"></use><g><use xlink:href="#bso6sioHR" opacity="1" fill-opacity="0" stroke="#000000" stroke-width="1" stroke-opacity="0"></use></g></g><g><use xlink:href="#a451CFtejk" opacity="1" fill="#d3caa7" fill-opacity="1"></use><g><use xlink:href="#a451CFtejk" opacity="1" fill-opacity="0" stroke="#000000" stroke-width="1" stroke-opacity="0"></use></g></g><g><use xlink:href="#b60Vw1ePdV" opacity="1" fill="#d3caa7" fill-opacity="1"></use><g><use xlink:href="#b60Vw1ePdV" opacity="1" fill-opacity="0" stroke="#000000" stroke-width="1" stroke-opacity="0"></use></g></g><g><use xlink:href="#c2z6x8K9Gz" opacity="1" fill="#d3caa7" fill-opacity="1"></use><g><use xlink:href="#c2z6x8K9Gz" opacity="1" fill-opacity="0" stroke="#000000" stroke-width="1" stroke-opacity="0"></use></g></g><g><use xlink:href="#a1DXVvRUba" opacity="1" fill="#d3caa7" fill-opacity="1"></use><g><use xlink:href="#a1DXVvRUba" opacity="1" fill-opacity="0" stroke="#000000" stroke-width="1" stroke-opacity="0"></use></g></g><g><use xlink:href="#b4O9WSiPE2" opacity="1" fill="#d3caa7" fill-opacity="1"></use><g><use xlink:href="#b4O9WSiPE2" opacity="1" fill-opacity="0" stroke="#000000" stroke-width="1" stroke-opacity="0"></use></g></g><g><use xlink:href="#h3x7Dczel7" opacity="1" fill="#d3caa7" fill-opacity="1"></use><g><use xlink:href="#h3x7Dczel7" opacity="1" fill-opacity="0" stroke="#000000" stroke-width="1" stroke-opacity="0"></use></g></g><g><use xlink:href="#a3nTJrVEN" opacity="1" fill="#d3caa7" fill-opacity="1"></use><g><use xlink:href="#a3nTJrVEN" opacity="1" fill-opacity="0" stroke="#000000" stroke-width="1" stroke-opacity="0"></use></g></g><g><use xlink:href="#c2f5g9gY6C" opacity="1" fill="#31331a" fill-opacity="1"></use><g><use xlink:href="#c2f5g9gY6C" opacity="1" fill-opacity="0" stroke="#000000" stroke-width="1" stroke-opacity="0"></use></g></g><g><use xlink:href="#a1VbZoN7cs" opacity="1" fill="#31331a" fill-opacity="1"></use><g><use xlink:href="#a1VbZoN7cs" opacity="1" fill-opacity="0" stroke="#000000" stroke-width="1" stroke-opacity="0"></use></g></g><g><use xlink:href="#e2DCfJXZ8C" opacity="1" fill="#31331a" fill-opacity="1"></use><g><use xlink:href="#e2DCfJXZ8C" opacity="1" fill-opacity="0" stroke="#000000" stroke-width="1" stroke-opacity="0"></use></g></g><g><use xlink:href="#a8icbDFW8" opacity="1" fill="#31331a" fill-opacity="1"></use><g><use xlink:href="#a8icbDFW8" opacity="1" fill-opacity="0" stroke="#000000" stroke-width="1" stroke-opacity="0"></use></g></g><g><use xlink:href="#ajUPPHyzN" opacity="1" fill="#31331a" fill-opacity="1"></use><g><use xlink:href="#ajUPPHyzN" opacity="1" fill-opacity="0" stroke="#000000" stroke-width="1" stroke-opacity="0"></use></g></g><g><use xlink:href="#d7stBi76XT" opacity="1" fill="#31331a" fill-opacity="1"></use><g><use xlink:href="#d7stBi76XT" opacity="1" fill-opacity="0" stroke="#000000" stroke-width="1" stroke-opacity="0"></use></g></g><g><use xlink:href="#a5jetF10I4" opacity="1" fill="#ffffff" fill-opacity="1"></use><g><use xlink:href="#a5jetF10I4" opacity="1" fill-opacity="0" stroke="#000000" stroke-width="1" stroke-opacity="0"></use></g></g><g><use xlink:href="#a1KS80NAur" opacity="1" fill="#f4e8c8" fill-opacity="1"></use><g><use xlink:href="#a1KS80NAur" opacity="1" fill-opacity="0" stroke="#000000" stroke-width="1" stroke-opacity="0"></use></g></g><g><use xlink:href="#a1s6hVspDa" opacity="1" fill="#f4e8c8" fill-opacity="1"></use><g><use xlink:href="#a1s6hVspDa" opacity="1" fill-opacity="0" stroke="#000000" stroke-width="1" stroke-opacity="0"></use></g></g><g><use xlink:href="#b7Zrx3PIk9" opacity="1" fill="#f4e8c8" fill-opacity="1"></use><g><use xlink:href="#b7Zrx3PIk9" opacity="1" fill-opacity="0" stroke="#000000" stroke-width="1" stroke-opacity="0"></use></g></g><g><use xlink:href="#alqvxU5a7" opacity="1" fill="#f4e8c8" fill-opacity="1"></use><g><use xlink:href="#alqvxU5a7" opacity="1" fill-opacity="0" stroke="#000000" stroke-width="1" stroke-opacity="0"></use></g></g><g><use xlink:href="#c11gHNKr7t" opacity="1" fill="#f4e8c8" fill-opacity="1"></use><g><use xlink:href="#c11gHNKr7t" opacity="1" fill-opacity="0" stroke="#000000" stroke-width="1" stroke-opacity="0"></use></g></g><g><use xlink:href="#e69saTDha" opacity="1" fill="#f4e8c8" fill-opacity="1"></use><g><use xlink:href="#e69saTDha" opacity="1" fill-opacity="0" stroke="#000000" stroke-width="1" stroke-opacity="0"></use></g></g><g><use xlink:href="#ba5qMFUoV" opacity="1" fill="#f4e8c8" fill-opacity="1"></use><g><use xlink:href="#ba5qMFUoV" opacity="1" fill-opacity="0" stroke="#000000" stroke-width="1" stroke-opacity="0"></use></g></g><g><use xlink:href="#a3R5RtLDpz" opacity="1" fill="#f4e8c8" fill-opacity="1"></use><g><use xlink:href="#a3R5RtLDpz" opacity="1" fill-opacity="0" stroke="#000000" stroke-width="1" stroke-opacity="0"></use></g></g><g><use xlink:href="#ekoAllsC7" opacity="1" fill="#f4e8c8" fill-opacity="1"></use><g><use xlink:href="#ekoAllsC7" opacity="1" fill-opacity="0" stroke="#000000" stroke-width="1" stroke-opacity="0"></use></g></g><g><use xlink:href="#d1MWsiN177" opacity="1" fill="#ffffff" fill-opacity="1"></use><g><use xlink:href="#d1MWsiN177" opacity="1" fill-opacity="0" stroke="#000000" stroke-width="1" stroke-opacity="0"></use></g></g><g><use xlink:href="#bc7MVzsH" opacity="1" fill="#f2c935" fill-opacity="1"></use><g><use xlink:href="#bc7MVzsH" opacity="1" fill-opacity="0" stroke="#000000" stroke-width="1" stroke-opacity="0"></use></g></g><g><use xlink:href="#dHDq4SNIB" opacity="1" fill="#a3a4a8" fill-opacity="1"></use><g><use xlink:href="#dHDq4SNIB" opacity="1" fill-opacity="0" stroke="#000000" stroke-width="1" stroke-opacity="0"></use></g></g><g><use xlink:href="#aez5Y6pjw" opacity="1" fill="#a3a4a8" fill-opacity="1"></use><g><use xlink:href="#aez5Y6pjw" opacity="1" fill-opacity="0" stroke="#000000" stroke-width="1" stroke-opacity="0"></use></g></g><g><use xlink:href="#b5YPXAeHvq" opacity="1" fill="#8b5335" fill-opacity="1"></use><g><use xlink:href="#b5YPXAeHvq" opacity="1" fill-opacity="0" stroke="#000000" stroke-width="1" stroke-opacity="0"></use></g></g><g><use xlink:href="#b28UPQ9m4o" opacity="1" fill="#5c5f58" fill-opacity="1"></use><g><use xlink:href="#b28UPQ9m4o" opacity="1" fill-opacity="0" stroke="#000000" stroke-width="1" stroke-opacity="0"></use></g></g><g><use xlink:href="#b4Oxsv1cO3" opacity="1" fill="#cbbc8b" fill-opacity="1"></use><g><use xlink:href="#b4Oxsv1cO3" opacity="1" fill-opacity="0" stroke="#000000" stroke-width="1" stroke-opacity="0"></use></g></g><g><use xlink:href="#acjO7Ryo5" opacity="1" fill="#a6a576" fill-opacity="1"></use><g><use xlink:href="#acjO7Ryo5" opacity="1" fill-opacity="0" stroke="#000000" stroke-width="1" stroke-opacity="0"></use></g></g><g><use xlink:href="#a1ueFuyNCU" opacity="1" fill="#a6a576" fill-opacity="1"></use><g><use xlink:href="#a1ueFuyNCU" opacity="1" fill-opacity="0" stroke="#000000" stroke-width="1" stroke-opacity="0"></use></g></g><g><use xlink:href="#aVIW3jOpv" opacity="1" fill="#cfbe98" fill-opacity="1"></use><g><use xlink:href="#aVIW3jOpv" opacity="1" fill-opacity="0" stroke="#000000" stroke-width="1" stroke-opacity="0"></use></g></g><g><use xlink:href="#bviLlIJjy" opacity="1" fill="#cbbc8b" fill-opacity="1"></use><g><use xlink:href="#bviLlIJjy" opacity="1" fill-opacity="0" stroke="#000000" stroke-width="1" stroke-opacity="0"></use></g></g><g><use xlink:href="#dnFYC4g59" opacity="1" fill="#a6a576" fill-opacity="1"></use><g><use xlink:href="#dnFYC4g59" opacity="1" fill-opacity="0" stroke="#000000" stroke-width="1" stroke-opacity="0"></use></g></g><g><use xlink:href="#a2731HZVaB" opacity="1" fill="#a6a576" fill-opacity="1"></use><g><use xlink:href="#a2731HZVaB" opacity="1" fill-opacity="0" stroke="#000000" stroke-width="1" stroke-opacity="0"></use></g></g><g><use xlink:href="#c6rIGEIMB" opacity="1" fill="#a6a576" fill-opacity="1"></use><g><use xlink:href="#c6rIGEIMB" opacity="1" fill-opacity="0" stroke="#000000" stroke-width="1" stroke-opacity="0"></use></g></g><g><use xlink:href="#b5fDgU5MR0" opacity="1" fill="#cbbc8b" fill-opacity="1"></use><g><use xlink:href="#b5fDgU5MR0" opacity="1" fill-opacity="0" stroke="#000000" stroke-width="1" stroke-opacity="0"></use></g></g><g><use xlink:href="#b1Yrvut9il" opacity="1" fill="#cbbc8b" fill-opacity="1"></use><g><use xlink:href="#b1Yrvut9il" opacity="1" fill-opacity="0" stroke="#000000" stroke-width="1" stroke-opacity="0"></use></g></g><g><use xlink:href="#apfaUHra2" opacity="1" fill="#a6a576" fill-opacity="1"></use><g><use xlink:href="#apfaUHra2" opacity="1" fill-opacity="0" stroke="#000000" stroke-width="1" stroke-opacity="0"></use></g></g><g><use xlink:href="#cgNBkZ0im" opacity="1" fill="#000000" fill-opacity="0"></use><g><use xlink:href="#cgNBkZ0im" opacity="1" fill-opacity="0" stroke="#ff0000" stroke-width="18" stroke-opacity="1"></use></g></g><g><use xlink:href="#a6bfSVkDUb" opacity="1" fill="#000000" fill-opacity="0"></use><g><use xlink:href="#a6bfSVkDUb" opacity="1" fill-opacity="0" stroke="#ff0000" stroke-width="10" stroke-opacity="1"></use></g></g><g><use xlink:href="#e21wQDZKyi" opacity="1" fill="#000000" fill-opacity="0"></use><g><use xlink:href="#e21wQDZKyi" opacity="1" fill-opacity="0" stroke="#ff0000" stroke-width="10" stroke-opacity="1"></use></g></g><g><g><use xlink:href="#f4r5QWgjuE" opacity="1" fill="#33242c" fill-opacity="1"></use><g><use xlink:href="#f4r5QWgjuE" opacity="1" fill-opacity="0" stroke="#000000" stroke-width="1" stroke-opacity="0"></use></g></g><g><use xlink:href="#bpo9iGdPG" opacity="1" fill="#33242c" fill-opacity="1"></use><g><use xlink:href="#bpo9iGdPG" opacity="1" fill-opacity="0" stroke="#000000" stroke-width="1" stroke-opacity="0"></use></g></g><g><use xlink:href="#b1oHYKBouJ" opacity="1" fill="#000000" fill-opacity="0"></use><g><use xlink:href="#b1oHYKBouJ" opacity="1" fill-opacity="0" stroke="#000000" stroke-width="1" stroke-opacity="0"></use></g></g><g><use xlink:href="#aCr1HxdUf" opacity="1" fill="#33242c" fill-opacity="1"></use><g><use xlink:href="#aCr1HxdUf" opacity="1" fill-opacity="0" stroke="#000000" stroke-width="1" stroke-opacity="0"></use></g></g><g><use xlink:href="#bhiPQHqt" opacity="1" fill="#514438" fill-opacity="1"></use><g><use xlink:href="#bhiPQHqt" opacity="1" fill-opacity="0" stroke="#000000" stroke-width="1" stroke-opacity="0"></use></g></g><g><use xlink:href="#e2KCUw3zoQ" opacity="1" fill="#44393d" fill-opacity="1"></use><g><use xlink:href="#e2KCUw3zoQ" opacity="1" fill-opacity="0" stroke="#000000" stroke-width="1" stroke-opacity="0"></use></g></g><g><use xlink:href="#c2HkAfef95" opacity="1" fill="#33242c" fill-opacity="1"></use><g><use xlink:href="#c2HkAfef95" opacity="1" fill-opacity="0" stroke="#000000" stroke-width="1" stroke-opacity="0"></use></g></g><g><use xlink:href="#bWPc9ZshK" opacity="1" fill="#000000" fill-opacity="0"></use><g><use xlink:href="#bWPc9ZshK" opacity="1" fill-opacity="0" stroke="#000000" stroke-width="1" stroke-opacity="0"></use></g></g><g><use xlink:href="#ezRZk5ySG" opacity="1" fill="#000000" fill-opacity="0"></use><g><use xlink:href="#ezRZk5ySG" opacity="1" fill-opacity="0" stroke="#000000" stroke-width="1" stroke-opacity="0"></use></g></g></g></g></g></svg>